<svg version="1.1" id="Layer_1" xmlns="http://www.w3.org/2000/svg" xmlns:xlink="http://www.w3.org/1999/xlink" viewBox="0 0 392.533 392.533" xml:space="preserve" width="18px" height="18px" fill="#000000"><g id="SVGRepo_bgCarrier" stroke-width="0"></g><g id="SVGRepo_tracerCarrier" stroke-linecap="round" stroke-linejoin="round"></g><g id="SVGRepo_iconCarrier"> <path style="fill:#FFFFFF;" d="M359.822,370.715c6.012,0,10.925-4.848,10.925-10.925V136.76H21.786v222.901 c0,6.012,4.848,10.925,10.925,10.925h327.111V370.715z"></path> <g> <path style="fill:#FFC10D;" d="M119.919,64.226V32.679c0-6.012-4.848-10.925-10.925-10.925c-6.077,0-10.925,4.913-10.925,10.925 v31.612c0,6.012,4.848,10.925,10.925,10.925C115.071,75.216,119.919,70.303,119.919,64.226z"></path> <path style="fill:#FFC10D;" d="M294.4,64.226V32.679c0-6.012-4.848-10.925-10.925-10.925c-6.077,0-10.925,4.848-10.925,10.925 v31.612c0,6.012,4.848,10.925,10.925,10.925C289.552,75.216,294.4,70.303,294.4,64.226z"></path> <rect x="72.469" y="183.693" style="fill:#FFC10D;" width="32.711" height="32.711"></rect> </g> <rect x="179.911" y="183.693" style="fill:#56ACE0;" width="32.711" height="32.711"></rect> <rect x="287.354" y="183.693" style="fill:#FFC10D;" width="32.711" height="32.711"></rect> <rect x="72.469" y="289.261" style="fill:#56ACE0;" width="32.711" height="32.711"></rect> <rect x="179.911" y="289.261" style="fill:#FFC10D;" width="32.711" height="32.711"></rect> <rect x="287.354" y="289.261" style="fill:#56ACE0;" width="32.711" height="32.711"></rect> <path style="fill:#194F82;" d="M359.822,37.592h-43.572v-4.848c0-18.036-14.675-32.711-32.711-32.711 c-18.036,0-32.711,14.675-32.711,32.711v4.848H141.705v-4.848c0-18.036-14.675-32.711-32.711-32.711S76.283,14.707,76.283,32.743 v4.848H32.711C14.675,37.592,0,52.267,0,70.303V359.79c0,18.036,14.675,32.711,32.711,32.711h327.111 c18.036,0,32.711-14.675,32.711-32.711V70.303C392.533,52.267,377.859,37.592,359.822,37.592z M272.614,32.679 c0-6.012,4.848-10.925,10.925-10.925c6.077,0,10.925,4.913,10.925,10.925v31.612c0,6.012-4.848,10.925-10.925,10.925 c-6.077,0-10.925-4.848-10.925-10.925V32.679z M98.133,32.679c0-6.012,4.848-10.925,10.925-10.925s10.925,4.848,10.925,10.925 v31.612c0,6.012-4.848,10.925-10.925,10.925s-10.925-4.848-10.925-10.925V32.679z M370.747,359.79 c0,6.012-4.848,10.925-10.925,10.925H32.711c-6.012,0-10.925-4.848-10.925-10.925V136.76h348.962L370.747,359.79L370.747,359.79z M370.747,115.038H21.786V70.303c0-6.012,4.848-10.925,10.925-10.925h43.572v4.848c0,18.036,14.675,32.711,32.711,32.711 s32.711-14.675,32.711-32.711v-4.848h109.059v4.848c0,18.036,14.675,32.711,32.711,32.711c18.036,0,32.711-14.675,32.711-32.711 v-4.848h43.572c6.012,0,10.925,4.848,10.925,10.925v44.735L370.747,115.038L370.747,115.038z"></path> <path style="fill:#56ACE0;" d="M21.786,70.303v44.735h348.962V70.303c0-6.012-4.848-10.925-10.925-10.925H316.25v4.848 c0,18.036-14.675,32.711-32.711,32.711c-18.036,0-32.711-14.675-32.711-32.711v-4.848H141.705v4.848 c0,18.036-14.675,32.711-32.711,32.711S76.283,82.263,76.283,64.226v-4.848H32.711C26.699,59.378,21.786,64.226,21.786,70.303z"></path> <g> <path style="fill:#194F82;" d="M61.608,238.19h54.497c6.012,0,10.925-4.848,10.925-10.925v-54.562 c0-6.012-4.848-10.925-10.925-10.925H61.608c-6.012,0-10.925,4.848-10.925,10.925v54.562 C50.683,233.341,55.531,238.19,61.608,238.19z M72.469,183.693h32.711v32.711H72.469C72.469,216.404,72.469,183.693,72.469,183.693 z"></path> <path style="fill:#194F82;" d="M168.986,238.19h54.562c6.012,0,10.925-4.848,10.925-10.925v-54.562 c0-6.012-4.848-10.925-10.925-10.925h-54.562c-6.012,0-10.925,4.848-10.925,10.925v54.562 C158.125,233.341,162.974,238.19,168.986,238.19z M179.911,183.693h32.711v32.711h-32.711V183.693z"></path> <path style="fill:#194F82;" d="M276.493,238.19h54.562c6.012,0,10.925-4.848,10.925-10.925v-54.562 c0-6.012-4.848-10.925-10.925-10.925h-54.562c-6.012,0-10.925,4.848-10.925,10.925v54.562 C265.568,233.341,270.481,238.19,276.493,238.19z M287.354,183.693h32.711v32.711h-32.711V183.693z"></path> <path style="fill:#194F82;" d="M61.608,343.822h54.497c6.012,0,10.925-4.848,10.925-10.925v-54.562 c0-6.012-4.848-10.925-10.925-10.925H61.608c-6.012,0-10.925,4.849-10.925,10.925v54.562 C50.683,338.909,55.531,343.822,61.608,343.822z M72.469,289.261h32.711v32.711H72.469 C72.469,321.972,72.469,289.261,72.469,289.261z"></path> <path style="fill:#194F82;" d="M168.986,343.822h54.562c6.012,0,10.925-4.848,10.925-10.925v-54.562 c0-6.012-4.848-10.925-10.925-10.925h-54.562c-6.012,0-10.925,4.849-10.925,10.925v54.562 C158.125,338.909,162.974,343.822,168.986,343.822z M179.911,289.261h32.711v32.711h-32.711V289.261z"></path> <path style="fill:#194F82;" d="M276.493,343.822h54.562c6.012,0,10.925-4.848,10.925-10.925v-54.562 c0-6.012-4.848-10.925-10.925-10.925h-54.562c-6.012,0-10.925,4.849-10.925,10.925v54.562 C265.568,338.909,270.481,343.822,276.493,343.822z M287.354,289.261h32.711v32.711h-32.711V289.261z"></path> </g> </g></svg>