<svg xmlns="http://www.w3.org/2000/svg" viewBox="0 0 392.533 392.533" xml:space="preserve" width="18" height="18"><path style="fill:#fff" d="M359.822 370.715c6.012 0 10.925-4.848 10.925-10.925V136.76H21.786v222.901c0 6.012 4.848 10.925 10.925 10.925h327.111v.129z"/><path style="fill:#ffc10d" d="M119.919 64.226V32.679c0-6.012-4.848-10.925-10.925-10.925-6.077 0-10.925 4.913-10.925 10.925v31.612c0 6.012 4.848 10.925 10.925 10.925 6.077 0 10.925-4.913 10.925-10.99zM294.4 64.226V32.679c0-6.012-4.848-10.925-10.925-10.925a10.87 10.87 0 0 0-10.925 10.925v31.612c0 6.012 4.848 10.925 10.925 10.925 6.077 0 10.925-4.913 10.925-10.99zM72.469 183.693h32.711v32.711H72.469z"/><path style="fill:#56ace0" d="M179.911 183.693h32.711v32.711h-32.711z"/><path style="fill:#ffc10d" d="M287.354 183.693h32.711v32.711h-32.711z"/><path style="fill:#56ace0" d="M72.469 289.261h32.711v32.711H72.469z"/><path style="fill:#ffc10d" d="M179.911 289.261h32.711v32.711h-32.711z"/><path style="fill:#56ace0" d="M287.354 289.261h32.711v32.711h-32.711z"/><path style="fill:#194f82" d="M359.822 37.592H316.25v-4.848c0-18.036-14.675-32.711-32.711-32.711-18.036 0-32.711 14.675-32.711 32.711v4.848H141.705v-4.848c0-18.036-14.675-32.711-32.711-32.711s-32.711 14.674-32.711 32.71v4.848H32.711C14.675 37.592 0 52.267 0 70.303V359.79c0 18.036 14.675 32.711 32.711 32.711h327.111c18.036 0 32.711-14.675 32.711-32.711V70.303c0-18.036-14.674-32.711-32.711-32.711zm-87.208-4.913c0-6.012 4.848-10.925 10.925-10.925 6.077 0 10.925 4.913 10.925 10.925v31.612c0 6.012-4.848 10.925-10.925 10.925a10.87 10.87 0 0 1-10.925-10.925V32.679zm-174.481 0c0-6.012 4.848-10.925 10.925-10.925s10.925 4.848 10.925 10.925v31.612c0 6.012-4.848 10.925-10.925 10.925s-10.925-4.848-10.925-10.925V32.679zM370.747 359.79c0 6.012-4.848 10.925-10.925 10.925H32.711c-6.012 0-10.925-4.848-10.925-10.925V136.76h348.962l-.001 223.03zm0-244.752H21.786V70.303c0-6.012 4.848-10.925 10.925-10.925h43.572v4.848c0 18.036 14.675 32.711 32.711 32.711s32.711-14.675 32.711-32.711v-4.848h109.059v4.848c0 18.036 14.675 32.711 32.711 32.711 18.036 0 32.711-14.675 32.711-32.711v-4.848h43.572c6.012 0 10.925 4.848 10.925 10.925v44.735h.064z"/><path style="fill:#56ace0" d="M21.786 70.303v44.735h348.962V70.303c0-6.012-4.848-10.925-10.925-10.925H316.25v4.848c0 18.036-14.675 32.711-32.711 32.711-18.036 0-32.711-14.675-32.711-32.711v-4.848H141.705v4.848c0 18.036-14.675 32.711-32.711 32.711S76.283 82.263 76.283 64.226v-4.848H32.711c-6.012 0-10.925 4.848-10.925 10.925z"/><path style="fill:#194f82" d="M61.608 238.19h54.497c6.012 0 10.925-4.848 10.925-10.925v-54.562c0-6.012-4.848-10.925-10.925-10.925H61.608c-6.012 0-10.925 4.848-10.925 10.925v54.562a10.87 10.87 0 0 0 10.925 10.925zm10.861-54.497h32.711v32.711H72.469v-32.711zM168.986 238.19h54.562c6.012 0 10.925-4.848 10.925-10.925v-54.562c0-6.012-4.848-10.925-10.925-10.925h-54.562c-6.012 0-10.925 4.848-10.925 10.925v54.562c.064 6.076 4.913 10.925 10.925 10.925zm10.925-54.497h32.711v32.711h-32.711v-32.711zM276.493 238.19h54.562c6.012 0 10.925-4.848 10.925-10.925v-54.562c0-6.012-4.848-10.925-10.925-10.925h-54.562c-6.012 0-10.925 4.848-10.925 10.925v54.562c0 6.076 4.913 10.925 10.925 10.925zm10.861-54.497h32.711v32.711h-32.711v-32.711zM61.608 343.822h54.497c6.012 0 10.925-4.848 10.925-10.925v-54.562c0-6.012-4.848-10.925-10.925-10.925H61.608c-6.012 0-10.925 4.849-10.925 10.925v54.562c0 6.012 4.848 10.925 10.925 10.925zm10.861-54.561h32.711v32.711H72.469v-32.711zM168.986 343.822h54.562c6.012 0 10.925-4.848 10.925-10.925v-54.562c0-6.012-4.848-10.925-10.925-10.925h-54.562c-6.012 0-10.925 4.849-10.925 10.925v54.562c.064 6.012 4.913 10.925 10.925 10.925zm10.925-54.561h32.711v32.711h-32.711v-32.711zM276.493 343.822h54.562c6.012 0 10.925-4.848 10.925-10.925v-54.562c0-6.012-4.848-10.925-10.925-10.925h-54.562c-6.012 0-10.925 4.849-10.925 10.925v54.562c0 6.012 4.913 10.925 10.925 10.925zm10.861-54.561h32.711v32.711h-32.711v-32.711z"/></svg>