<svg width="24" height="24" viewBox="0 0 24 22" fill="none" xmlns="http://www.w3.org/2000/svg"><path d="m18.073 20.367-1.487-1.428.863-.828.897-.861H16.187c-2.662 0-4.371-1.384-5.728-3.04.492-.558.927-1.135 1.318-1.683 1.226 1.623 2.425 2.723 4.41 2.723H18.346l-.897-.86-.863-.83 1.487-1.427 4.29 4.117-4.29 4.117Zm4.29-14.617-4.29 4.117-1.487-1.428.863-.828.897-.861H16.187c-1.223 0-2.162.417-3 1.148-.815.709-1.542 1.72-2.36 2.899-1.618 2.33-3.471 4.953-7.14 4.953H1.063v-2h2.625c1.223 0 2.162-.417 3-1.148.815-.709 1.542-1.72 2.36-2.899 1.618-2.33 3.471-4.953 7.14-4.953H18.346l-.897-.86-.863-.83 1.487-1.427 4.29 4.117Zm-18.675.5c1.894 0 3.3.7 4.438 1.689l-.398.558c-.27.38-.568.8-.802 1.123-.889-.854-1.881-1.37-3.239-1.37H1.063v-2h2.625Z" fill="#fd0" stroke="#fd0"/></svg>