<svg width="28" height="32" viewBox="0 0 16.934 10.789" xml:space="preserve" xmlns="http://www.w3.org/2000/svg"><style>@keyframes changeColor{0%,to{fill:#2973c4}33%{fill:#108800}66%{fill:#e50a10}}</style><path d="M2483.8 1078c-69.856 65.198-138.81 129.82-208.13 194.04-19.521 18.085-33.67 17.996-53.508-.043-83.543-75.969-167.82-151.17-249.89-228.7-77.378-73.107-152.42-148.69-228.31-223.37-76.198-74.996-128.32-163.53-150.57-268.84-16.124-76.282-17.636-152.16 11.571-225.59 39.218-98.597 116.18-155.21 216.63-177.71 165.61-37.09 304.95 15.649 422.47 133.83 2.088 2.1 3.86 4.513 6.156 7.225 18.992-16.464 36.762-32.894 55.59-48.004 61.649-49.47 129.67-86.565 208.22-100.68 111.71-20.079 212.07 6.248 298.74 79.531 65 54.96 98.757 126.71 105.15 211.37 9.238 122.28-31.922 227.43-111.41 318.28-101.01 115.44-211.84 221.36-322.71 328.67z" fill="#2973C4" stroke-width="2.987" style="animation:changeColor 3s infinite" transform="matrix(.00743 0 0 .00743 -10 .43)"/><path d="M16.848 3.236C16.303.354 13.42-.004 13.42-.004H.509c-.426 0-.48.562-.48.562S-.027 5.726.015 8.9c.116 1.71 1.825 1.885 1.825 1.885s5.833-.016 8.443-.034c1.72-.3 1.893-1.81 1.875-2.635 3.07.17 5.237-1.997 4.691-4.88zM9.043 5.713c-.879 1.025-2.83 2.805-2.83 2.805s-.085.084-.218.016c-.054-.04-.077-.063-.077-.063-.312-.311-2.376-2.151-2.846-2.79-.5-.68-.734-1.905-.064-2.617.671-.713 2.12-.767 3.078.287 0 0 1.105-1.258 2.447-.68 1.344.579 1.293 2.125.51 3.042zm4.356.337c-.655.082-1.187.02-1.187.02V2.062h1.249s1.39.388 1.39 1.86c0 1.35-.694 1.883-1.452 2.128z" fill="#F5F5F5"/></svg>