<svg fill="#b3b3b3" height="24" width="24" xmlns="http://www.w3.org/2000/svg" viewBox="-59.4 -59.4 415.8 415.8" xml:space="preserve" stroke="#fff"><path d="M209.974 130.227c0 5.557 4.505 10.061 10.061 10.061 5.557 0 10.059-4.506 10.059-10.061 0-42.178-34.313-76.494-76.485-76.494-5.557 0-10.061 4.504-10.061 10.059 0 5.557 4.504 10.061 10.061 10.061 31.078-.001 56.364 25.288 56.365 56.374z"/><path d="M153.608 0c-5.557 0-10.061 4.506-10.061 10.061s4.503 10.059 10.061 10.059c60.704.002 110.09 49.395 110.09 110.107 0 5.555 4.505 10.061 10.06 10.061 5.556 0 10.061-4.506 10.061-10.061C283.818 58.42 225.405.002 153.608 0zM59.151 43.496a10.057 10.057 0 0 0-15.872 2.165c-31.455 55.682-21.812 126.188 23.449 171.455 27.009 27.014 62.922 41.891 101.123 41.893h.008c24.646 0 48.958-6.377 70.306-18.439a10.059 10.059 0 0 0 2.166-15.871L59.151 43.496zM173.163 110.512c-8.988-8.99-21.729-11.971-33.227-8.982l42.212 42.217c2.987-11.499.005-24.243-8.985-33.235z"/><path d="m46.197 218.525-31.953 63.916A10.06 10.06 0 0 0 23.243 297h132.963c5.556 0 10.06-4.504 10.06-10.06v-11.855c-41.907-.408-81.245-16.91-110.919-46.588a158.145 158.145 0 0 1-9.15-9.972z"/></svg>