<svg fill="#b3b3b3" height="24px" width="24px" version="1.1" id="Capa_1" xmlns="http://www.w3.org/2000/svg" xmlns:xlink="http://www.w3.org/1999/xlink" viewBox="-59.4 -59.4 415.80 415.80" xml:space="preserve" stroke="#ffffff"><g id="SVGRepo_bgCarrier" stroke-width="0"></g><g id="SVGRepo_tracerCarrier" stroke-linecap="round" stroke-linejoin="round"></g><g id="SVGRepo_iconCarrier"> <g> <path d="M209.974,130.227c0,5.557,4.505,10.061,10.061,10.061c5.557,0,10.059-4.506,10.059-10.061 c0-42.178-34.313-76.494-76.485-76.494c-5.557,0-10.061,4.504-10.061,10.059c0,5.557,4.504,10.061,10.061,10.061 C184.687,73.852,209.973,99.141,209.974,130.227z"></path> <path d="M153.608,0c-5.557,0-10.061,4.506-10.061,10.061c0,5.555,4.503,10.059,10.061,10.059 c60.704,0.002,110.09,49.395,110.09,110.107c0,5.555,4.505,10.061,10.06,10.061c5.556,0,10.061-4.506,10.061-10.061 C283.818,58.42,225.405,0.002,153.608,0z"></path> <path d="M59.151,43.496c-1.898-1.9-4.464-2.947-7.114-2.947c-0.451,0-0.905,0.031-1.359,0.092c-3.115,0.426-5.852,2.283-7.399,5.02 c-31.455,55.682-21.812,126.188,23.449,171.455c27.009,27.014,62.922,41.891,101.123,41.893c0.003,0,0.005,0,0.008,0 c24.646,0,48.958-6.377,70.306-18.439c2.737-1.547,4.594-4.283,5.018-7.398c0.426-3.115-0.63-6.25-2.852-8.473L59.151,43.496z"></path> <path d="M173.163,110.512c-8.988-8.99-21.729-11.971-33.227-8.982l42.212,42.217C185.135,132.248,182.153,119.504,173.163,110.512z "></path> <path d="M46.197,218.525l-31.953,63.916c-1.559,3.119-1.392,6.822,0.441,9.789c1.833,2.965,5.07,4.77,8.558,4.77h132.963 c5.556,0,10.06-4.504,10.06-10.06v-11.855c-41.907-0.408-81.245-16.91-110.919-46.588 C52.133,225.283,49.085,221.955,46.197,218.525z"></path> </g> </g></svg>