<svg xmlns="http://www.w3.org/2000/svg" width="420" height="600" fill="none"><g clip-path="url(#a)"><mask id="b" width="420" height="600" x="0" y="0" maskUnits="userSpaceOnUse" style="mask-type:luminance"><path fill="#fff" d="M0 0h420v600H0V0Z"/></mask><g mask="url(#b)"><path fill="#2C104E" d="M420 0H0v600h420V0Z"/><g filter="url(#c)" style="animation:float3 9s 1s infinite"><mask id="d" width="60" height="60" x="340" y="309" maskUnits="userSpaceOnUse" style="mask-type:luminance"><path fill="#fff" d="M340 309h60v60h-60v-60Z"/></mask><g fill="#8B4CD8" fill-opacity=".38" mask="url(#d)"><path d="M370.645 334.18c0-.721-.584-1.305-1.304-1.305a3.855 3.855 0 0 0-3.854 3.854v4.196a3.802 3.802 0 0 1-3.635 3.791 6.402 6.402 0 0 0-2.22-3.649l-.679-26.971a1.311 1.311 0 0 0-.156-.587l-2.066-3.824a1.31 1.31 0 0 0-1.148-.686 1.3 1.3 0 0 0-1.147.686l-2.065 3.824a1.298 1.298 0 0 0-.156.587l-.68 26.971a6.402 6.402 0 0 0-2.22 3.649 3.802 3.802 0 0 1-3.634-3.791v-4.196a3.856 3.856 0 0 0-3.854-3.854 1.306 1.306 0 0 0-.922 2.227 1.3 1.3 0 0 0 .922.382c.686 0 1.245.559 1.245 1.245v4.196c0 3.476 2.785 6.312 6.241 6.399a6.419 6.419 0 0 0 2.927 4.159v14.173c0 1.844 1.5 3.344 3.344 3.344 1.844 0 3.344-1.5 3.344-3.344v-14.174a6.415 6.415 0 0 0 2.926-4.158c3.456-.087 6.241-2.923 6.241-6.399v-4.196c0-.686.559-1.245 1.246-1.245.72 0 1.304-.584 1.304-1.304Zm-15.83-19.706.769-1.425.769 1.425.637 25.304a6.334 6.334 0 0 0-2.813 0l.638-25.304Zm1.504 46.563h-1.471v-3h1.471v3Zm-.735 5.354a.735.735 0 0 1-.736-.735v-2.01h1.471v2.01c0 .405-.33.735-.735.735Zm.735-10.963h-1.471v-3.044c.242.028.487.044.736.044s.494-.016.735-.044v3.044Zm-.735-5.609a3.8 3.8 0 0 1-3.795-3.795 3.796 3.796 0 0 1 1.113-2.682 3.796 3.796 0 0 1 2.682-1.113 3.8 3.8 0 0 1 3.795 3.795 3.8 3.8 0 0 1-3.795 3.795Z"/><path d="M355.584 343.445a2.586 2.586 0 0 0-1.823.756 2.586 2.586 0 0 0-.756 1.823c.001.684.273 1.339.756 1.823a2.586 2.586 0 0 0 1.823.756 2.586 2.586 0 0 0 1.823-.756 2.586 2.586 0 0 0 .756-1.823 2.586 2.586 0 0 0-.756-1.823 2.586 2.586 0 0 0-1.823-.756Zm42.589-.929a1.252 1.252 0 0 1-.88-.365 1.252 1.252 0 0 1-.365-.88v-4.196c0-3.476-2.785-6.312-6.241-6.399a6.423 6.423 0 0 0-2.927-4.158v-14.174c0-1.844-1.5-3.344-3.344-3.344a3.346 3.346 0 0 0-3.344 3.344v14.174a6.415 6.415 0 0 0-2.926 4.158c-3.456.087-6.241 2.923-6.241 6.399v4.196c0 .686-.559 1.245-1.246 1.245a1.305 1.305 0 0 0 0 2.609 3.856 3.856 0 0 0 3.854-3.854v-4.196a3.802 3.802 0 0 1 3.635-3.791 6.402 6.402 0 0 0 2.22 3.649l.679 26.971c.005.205.059.406.156.587l2.066 3.824a1.31 1.31 0 0 0 1.148.686 1.3 1.3 0 0 0 1.147-.686l2.065-3.824c.098-.181.151-.382.156-.587l.68-26.971a6.402 6.402 0 0 0 2.22-3.649 3.802 3.802 0 0 1 3.634 3.791v4.196a3.856 3.856 0 0 0 3.854 3.854 1.306 1.306 0 0 0 .922-2.227 1.3 1.3 0 0 0-.922-.382Zm-13.757-30.907c.406 0 .736.33.736.735v7.619h-1.471v-7.619c0-.405.33-.735.735-.735Zm-.735 10.963h1.471v3.044a6.24 6.24 0 0 0-1.471 0v-3.044Zm.735 5.609a3.8 3.8 0 0 1 3.795 3.795 3.796 3.796 0 0 1-1.113 2.682 3.796 3.796 0 0 1-2.682 1.113 3.8 3.8 0 0 1-3.795-3.795 3.8 3.8 0 0 1 3.795-3.795Zm.769 35.345-.769 1.425-.769-1.425-.637-25.304a6.35 6.35 0 0 0 2.813 0l-.638 25.304Z"/><path d="M384.416 334.555a2.586 2.586 0 0 0 1.823-.756 2.586 2.586 0 0 0 .756-1.823 2.586 2.586 0 0 0-.756-1.823 2.586 2.586 0 0 0-1.823-.756 2.586 2.586 0 0 0-1.823.756 2.586 2.586 0 0 0-.756 1.823c.001.684.273 1.339.756 1.823a2.586 2.586 0 0 0 1.823.756Z"/></g></g><g filter="url(#e)"><path fill="#6229C5" fill-opacity=".38" d="m177.628 416.246.372.18c.876.549 1.948.583 2.975.135 1.017-.434 1.871-1.359 2.128-2.269l.053.018-.146-8.31c-3.22.24-6.206 1.092-8.794 2.592l3.412 7.654Zm14.371.18.373-.179 3.411-7.654c-2.587-1.5-5.574-2.352-8.794-2.592l-.146 8.31.053-.018c.257.911 1.111 1.835 2.128 2.269 1.028.448 2.099.413 2.975-.136Zm-12.443 4.146 3.862 8.665-.168-9.547a8.403 8.403 0 0 1-.855.399 7.3 7.3 0 0 1-2.839.483Zm7.194-.882-.168 9.547 3.862-8.665a7.283 7.283 0 0 1-2.839-.484 8.186 8.186 0 0 1-.855-.398Zm8.065-1.97-.013.205c-.132 2.149.273 4.297 1.406 6.072.986 1.582 2.559 2.802 4.379 3.659a15.157 15.157 0 0 0 1.413-4.731c3 10-.5 18-5 21-3-1-6.5-4-8-7 3.441-.688 7.828-3.271 10.556-7.421-.859-.31-1.705-.69-2.511-1.174a11.6 11.6 0 0 1-3.101-2.683 11.462 11.462 0 0 1-1.595-2.647l-5.878 12.585-.008.483 8.959 20.102c5.744-6.696 9.578-18.127 9.578-28.245 0-8.334-2.615-14.054-6.743-17.576l-3.442 7.371Zm-4.992 31.343-3.459-7.407-.17 9.69c.173-.17.351-.332.535-.487.934-.778 1.988-1.355 3.094-1.796Zm-6.285-12.994-.008-.483-5.877-12.585c-.413.944-.94 1.839-1.595 2.647a11.6 11.6 0 0 1-3.101 2.683c-.776.465-1.589.833-2.415 1.137 2.726 4.171 7.127 6.768 10.578 7.458-1.5 3-5 6-8 7-4.5-3-8-11-5-21 .207 1.627.677 3.21 1.391 4.686 1.779-.854 3.314-2.06 4.283-3.613 1.134-1.775 1.539-3.923 1.406-6.072l-.013-.206-3.442-7.371c-4.13 3.521-6.745 9.241-6.745 17.575 0 10.118 3.834 21.55 9.579 28.245l8.959-20.101Zm7.875 16.397c-1.038.111-2.061.382-2.962.852-1.052.548-1.904 1.385-2.334 2.475l-.107 6.08c2.823-.289 5.49-1.78 7.887-4.089l-2.484-5.318Zm-8.142-1.606c.184.154.362.317.535.487l-.17-9.69-3.459 7.407c1.106.44 2.16 1.017 3.094 1.796Zm-7.167 6.924c2.396 2.308 5.063 3.8 7.887 4.089l-.107-6.08c-.43-1.09-1.282-1.927-2.334-2.475-.902-.47-1.924-.741-2.962-.852l-2.484 5.318Z"/></g><g filter="url(#f)" style="animation:float0 5s infinite"><path fill="#5716AF" fill-opacity=".38" d="M243.617 108c-.481 0-.918.257-1.124.662l-23.73 46.527c-.394.772.21 1.664 1.126 1.664h4.713c.481 0 .92-.257 1.126-.662l10.322-20.238h8.037v1.485c0 .535.642.832 1.075.498l4.895-3.778a.628.628 0 0 0 .183-.777.628.628 0 0 0-.183-.22l-4.895-3.78c-.433-.334-1.075-.037-1.075.498v1.485h-5.699l5.688-11.151.011 5.385 6.217 5.045v-21.479c0-.643-.556-1.164-1.245-1.164h-5.442Zm-5.14 1.16c-14.096.263-25.477 11.11-25.477 24.414 0 5.608 2.029 10.777 5.425 14.905l20.052-39.319Zm15.219 4.277V141.9c0 2.389-2.079 4.333-4.635 4.333h-3.731c-2.556 0-4.634-1.943-4.634-4.331l-.003-2.763h-2.51l-8.743 17.144A27.321 27.321 0 0 0 239 158c14.337 0 26-10.958 26-24.426 0-8.348-4.483-15.73-11.304-20.137Zm-3.392 22.972-6.217 5.045v.446c0 .633.556 1.147 1.243 1.147h3.731c.688 0 1.243-.514 1.243-1.147v-5.491Z"/></g><g filter="url(#g)" style="animation:float6 8s infinite"><path fill="#5716AF" fill-opacity=".38" d="m252.85 267 9.247-9.246a17.6 17.6 0 0 1 2.631 9.246c0 3.391-.974 6.551-2.631 9.246L252.85 267Zm-15.096-15.097a17.6 17.6 0 0 1 9.246-2.631c3.267.002 6.469.913 9.247 2.631L247 261.15l-9.246-9.247ZM247 284.727a17.6 17.6 0 0 1-9.246-2.631l9.246-9.247 9.247 9.247a17.583 17.583 0 0 1-9.247 2.631ZM229.273 267c0-3.391.974-6.551 2.631-9.246L241.15 267l-9.246 9.246a17.6 17.6 0 0 1-2.631-9.246ZM247 241c-14.336 0-26 11.663-26 26s11.664 26 26 26c14.337 0 26-11.663 26-26s-11.663-26-26-26Z"/></g><g filter="url(#h)"><path fill="#6229C5" fill-opacity=".38" d="M305.221 199c-11.309 0-14.071 4.065-15.555 6.251-.145.213-.332.486-.462.646-1.474.154-2.968 1.083-4.237 2.643-1.851 2.276-3.667 6.534-2.697 11.048l1.177 5.464a16.723 16.723 0 0 0-.566 4.264c0 3.709 1.017 6.623 2.181 6.623h.948v7.241c0 1.687.698 3.317 2.049 4.673l8.483 7.558c.721.725 2.046 1.589 4.269 1.589h5.338c1.288 0 2.657-.463 3.963-1.339l8.766-7.788c1.353-1.172 2.07-2.792 2.07-4.693v-7.241h.456c1.163 0 2.18-2.914 2.18-6.623 0-.65-.042-1.263-.1-1.855l1.276-7.269c1.074-6.109-1.718-9.733-3.218-11.68l-.007-.007c.354-.158.667-.386.919-.668.253-.281.438-.611.543-.966.129-.428.141-.88.035-1.314a2.604 2.604 0 0 0-.643-1.168c-3.443-3.576-9.219-5.389-17.168-5.389Zm-6.91 16.732c2.11 0 2.723.95 3.942 3.672.694 1.552 1.48 3.312 2.987 4.7a16.9 16.9 0 0 0 1.559 1.258h-12.707l-.029-7.615c-.002-.724.129-.999.33-1.193.257-.247 1.154-.822 3.918-.822Zm16.777 11.613c.804 0 1.803.775 1.803 1.931 0 1.156-.959 1.976-1.761 1.974l-11.628-.046-11.619.038c-.804.003-1.771-.81-1.771-1.966s.938-1.904 1.742-1.906l11.646-.019 11.588-.006Zm-11.693 5.924c.827 0 1.651.433 2.206.802a2.61 2.61 0 0 0 1.689.423l9.084-.828c.19-.02.368-.067.551-.105v9.619c0 1.059-.423 1.545-.763 1.839l-8.462 7.543c-.578.37-1.123.572-1.548.572h-5.339c-.965 0-1.258-.294-1.441-.474l-8.485-7.558c-.386-.391-.849-1.041-.849-1.922v-9.587c.126.024.249.059.378.073l9.117.831a2.524 2.524 0 0 0 1.635-.413c.555-.372 1.391-.815 2.227-.815Zm.144 8.261c-2.273-.001-4.553.516-6.139 1.55-.297.195-.5.492-.568.826-.067.334.006.68.205.964.259.367.685.566 1.115.566.259 0 .518-.072.749-.221 2.265-1.472 6.994-1.48 9.203-.011a1.384 1.384 0 0 0 1.493.025c.148-.092.275-.21.373-.349.203-.281.282-.626.219-.961a1.3 1.3 0 0 0-.557-.831c-1.556-1.038-3.82-1.557-6.093-1.558Z"/></g><g filter="url(#i)"><path fill="#8B4CD8" fill-opacity=".38" d="M302.353 347c-5.78 0-9.753 2.476-12.129 5.448-2.376 2.972-3.254 6.284-3.466 8.379v.002c-.001.01-.012.025-.021.031-2.54 1.397-4.737 4.391-4.737 8.88 0 4.369.63 6.797 1.216 8.778.587 1.98 1.093 3.44 1.14 6.845.004.28-.255 1.423-.675 2.715-.419 1.292-.946 2.808-1.266 4.389-.32 1.581-.474 3.284.165 4.937.639 1.652 2.186 2.982 4.293 3.526.086.021.173.036.261.044l.007.012 15.717.014c.121 0 .241-.014.361-.019l25.393-.044c.189.031.382.029.571-.005 0 0 .583-.116 1.106-.415.522-.298 1.144-.809 1.708-1.604 1.128-1.589 2.009-4.225 2.009-8.674 0-4.546-2.113-7.323-3.821-9.687-1.709-2.364-3.128-4.381-3.128-8.772 0-5.124-1.52-11.241-5.419-16.19-3.898-4.95-10.239-8.59-19.285-8.59Zm-9.039 19.212h3.794v1.793c0 .424.215.816.566 1.032l4.604 2.832c.364.224.815.224 1.178 0l4.604-2.832c.175-.11.318-.262.418-.442.099-.181.15-.384.149-.59v-1.793h3.936c-.115 0 .059.008.291.349.232.342.389.904.388 1.102l-.006 4.619c-.335-.052-.702-.09-1.102-.113-1.817-.102-3.622.579-5.037 1.236-1.416.656-2.453 1.343-2.453 1.343a1.227 1.227 0 0 0-.05 1.994 1.121 1.121 0 0 0 .869.2c.151-.027.294-.085.422-.169 0 0 .686-.422 1.593-.886.022 1.331 1.056 2.398 2.325 2.399.841 0 1.616-.476 2.028-1.244a2.542 2.542 0 0 0-.04-2.465c.069 0 .151-.016.217-.012.504.029.891.091 1.225.162l-.009 6.501-1.354 2.719-.645 8.651c-.818.904-1.753 1.597-2.564 2.107l-3.437 2.059c-1.336.796-3.322.797-4.659 0h-.002l-3.435-2.059c-.785-.494-1.688-1.157-2.487-2.018l-.729-8.447-1.447-2.902-.022-6.583c.341-.069.739-.13 1.257-.157.045-.003.1.008.147.007a2.543 2.543 0 0 0 .071 2.394c.422.73 1.176 1.176 1.989 1.176 1.248-.001 2.272-1.034 2.322-2.342.927.444 1.625.847 1.625.847a1.114 1.114 0 0 0 1.178.047c.371-.208.604-.611.606-1.05a1.218 1.218 0 0 0-.596-1.056s-1.036-.644-2.449-1.261c-1.413-.617-3.214-1.257-5.011-1.16-.421.022-.799.062-1.146.114l-.018-4.956c0-.052.141-.452.454-.78.155-.164.334-.3.442-.366Zm6.105 0h6.897v1.109l-3.449 2.122-3.448-2.122v-1.109Zm1.902 21.549c-.871 0-2.32.552-3.371 1.011a.884.884 0 0 0-.52.715.915.915 0 0 0 .341.825c1.238.954 3.302 2.295 5.105 2.295 1.783 0 3.819-1.31 5.063-2.262a.91.91 0 0 0 .343-.837.89.89 0 0 0-.535-.72c-1.116-.462-2.626-1.027-3.316-1.027-.44 0-.769.229-1.008.516a.613.613 0 0 1-.745.162.623.623 0 0 1-.212-.169c-.23-.282-.589-.509-1.145-.509Z"/></g><g filter="url(#j)"><path fill="#6229C5" fill-opacity=".38" d="M326.002 415C311.431 415 306 427.28 306 435.02v24.787c0 1.291.935 2.398 2.272 2.692l10.57 2.332a3.096 3.096 0 0 0 2.502-.519c.711-.526 1.117-1.316 1.121-2.166l.002-.764c.383.071.771.109 1.16.113h4.477c.504 0 .968-.087 1.41-.206l-.004.929a2.712 2.712 0 0 0 1.134 2.198 3.09 3.09 0 0 0 2.534.497l10.601-2.52c1.307-.311 2.221-1.414 2.221-2.681v-24.798c.004-9.897-6.866-19.914-19.998-19.914Zm-7.054 3.369c-2.71 2.769 0 4.431 0 4.431-.444 2.92 1.058 4.442 2.24 5.171.284.965.652 1.823 1.061 2.573-5.714-.12-8.014-4.452-8.014-6.636 0-4.431 4.713-5.539 4.713-5.539Zm14.141 0s4.713 1.108 4.713 5.539c0 2.207-2.342 6.609-8.184 6.642.394-.72.748-1.54 1.029-2.46 1.203-.677 2.911-2.203 2.442-5.29 0 0 2.71-1.662 0-4.431Zm-7.153 4.132 4.119 1.937a12.287 12.287 0 0 1-4.119 8.901 12.282 12.282 0 0 1-4.12-8.899l4.12-1.939Zm8.041 14.071c2.176 0 3.88 1.681 3.88 3.827 0 .607-.406 1.901-1.489 2.789-.887.727-2.041 1.005-3.438.825a3.077 3.077 0 0 0-2.327.646 2.692 2.692 0 0 0-1.02 2.082l-.013 3.031a17.672 17.672 0 0 0-3.669-.385c-1.311 0-2.451.15-3.404.342l.007-2.969c.004-.798-.366-1.559-1.008-2.088a3.086 3.086 0 0 0-2.322-.662c-1.387.166-2.562-.13-3.489-.895-1.089-.9-1.579-2.227-1.579-2.88 0-2.087 1.684-3.661 3.917-3.661 1.848 0 3.792 1.039 5.779 3.094.562.579 1.338.884 2.2.904a3.024 3.024 0 0 0 2.187-.934c1.32-1.4 3.395-3.066 5.788-3.066Zm-1.496 1.728c-1.322 0-2.443.704-2.881 1.692a.352.352 0 0 0 .041.357.434.434 0 0 0 .348.167h4.982a.435.435 0 0 0 .348-.167.35.35 0 0 0 .041-.357c-.438-.988-1.557-1.692-2.879-1.692Zm-12.951.02c-1.33 0-2.456.704-2.897 1.692a.352.352 0 0 0 .041.357c.079.105.21.169.35.169h5.013c.14 0 .271-.064.35-.169a.352.352 0 0 0 .041-.357c-.441-.988-1.567-1.692-2.898-1.692Zm6.488 13.283c1.408 0 2.614.195 3.54.413l-.028 5.729-.05-.071c-.519.325-1.057.498-1.376.498h-4.477c-.648 0-.934-.128-1.107-.29l-.044.041.014-5.901a15.029 15.029 0 0 1 3.528-.419Z"/></g><g filter="url(#k)"><path fill="#6229C5" fill-opacity=".38" d="M224.485 399.015a1.79 1.79 0 0 0-1.499 1.355c-2.907 11.665 1.363 21.73 3.187 26.027.006.015.015.029.021.043.681 1.499 1.094 3.377 1.229 5.576l.503 8.865c0 1.576.631 3.097 1.782 4.277.088.09.185.171.289.24l4.774 3.19.046.037c.067.07.138.132.221.188.39.325.747.622 1.07.893 3.255 2.725 3.891 3.21 5.849 3.211 1.065.061 2.295.083 3.445.083.886 0 1.724-.014 2.398-.033l.141.002c1.986 0 3.086-.922 6.211-3.535.71-.595 1.575-1.316 2.599-2.155l3.012-2.011c.103-.071.198-.15.286-.24 1.151-1.182 1.783-2.701 1.78-4.171l.507-8.834c.135-2.206.548-4.085 1.229-5.586.006-.013.013-.025.019-.04 1.978-4.661 6.093-14.364 3.062-25.977a1.785 1.785 0 0 0-1.505-1.337 1.754 1.754 0 0 0-1.765.941 65.568 65.568 0 0 1-3.904 6.519c-2.052-3.518-6.191-6.976-14.554-6.976-8.625 0-12.698 3.794-14.612 7.09a64.278 64.278 0 0 1-4.048-6.701 1.748 1.748 0 0 0-1.773-.941Zm20.43 4.194c6.326 0 10.42 2.209 12.177 6.555-2.951 3.709-5.616 6.041-7.516 7.697-.776.677-1.448 1.264-1.981 1.806-1.282 1.161-1.766 2.775-2.043 4.059l-.671 3.116-.676-3.118c-.279-1.285-.763-2.901-2.041-4.057-.536-.545-1.22-1.14-2.009-1.825-1.891-1.645-4.531-3.948-7.444-7.562 1.726-4.416 5.819-6.671 12.204-6.671Zm-7.967 20.662c2.248 0 5.29 3.63 5.29 3.63h-3.967c-2.248 0-3.966-1.091-3.966-1.272 0-1.09.394-2.358 2.643-2.358Zm15.871 0c2.248 0 2.645 1.268 2.645 2.358 0 .181-1.721 1.272-3.969 1.272h-3.967s3.042-3.63 5.291-3.63Zm-.014 8.5-.607 1.171a1.861 1.861 0 0 0-.207.853l-.026 12.173-.053.046c-2.815 2.355-3.324 2.714-4.125 2.715-1.585.044-3.913.055-5.694-.05l-.072-.004-.069.002c-.731.02-.728.018-3.607-2.393l-.572-.477c-.019-2.556.002-10.912.035-11.827a1.858 1.858 0 0 0-.208-1.05l-.606-1.144c2.757.95 5.12 2.265 6.662 3.751.053.053.112.103.173.149.3.233.669.359 1.049.36h.007a1.718 1.718 0 0 0 1.227-.509c1.552-1.494 3.926-2.814 6.693-3.766Zm-8.053 6.301a13.653 13.653 0 0 0-4.304.69 1.177 1.177 0 0 0-.715.678c-.131.321-.118.683.033.995l.099.204c.257.529.853.783 1.4.599a10.639 10.639 0 0 1 3.36-.566c1.588 0 2.848.295 3.637.55a1.151 1.151 0 0 0 1.388-.604l.097-.197c.152-.313.162-.68.03-1.002a1.179 1.179 0 0 0-.724-.674 14.077 14.077 0 0 0-4.301-.673Z"/></g><g filter="url(#l)"><path fill="#6229C5" fill-opacity=".38" d="m392.235 261.802-.635-.004-.308-5.274c0-7.71-8.597-13.524-20-13.524-12.811 0-20.466 6.876-20.464 13.426l-.3 5.326-.763.004c-.978.006-1.765.74-1.765 1.646v7.124c0 .758.369 1.476 1.005 1.953l.882.66-.404 7.165c-.052.89.088 1.781.408 2.613l3.721 9.8c.851 2.236 2.826 3.935 5.284 4.748v-9.431c0-.685.604-1.24 1.351-1.24s1.35.555 1.35 1.24v9.93c.18.008.355.036.538.036h2.164v-11.282c0-.684.603-1.24 1.35-1.24.747 0 1.351.556 1.351 1.24V298h2.701v-12.384c0-.749.604-1.356 1.351-1.356s1.351.608 1.351 1.356V298h2.701v-11.282c0-.684.604-1.24 1.351-1.24s1.35.556 1.35 1.24V298h2.102c.204 0 .4-.03.6-.041v-9.97c0-.685.603-1.24 1.35-1.24.747 0 1.351.555 1.351 1.24v9.457c2.472-.832 4.44-2.56 5.261-4.836l3.798-10.528c.296-.819.42-1.668.369-2.52l-.378-6.485.737-.553c.636-.477 1.005-1.195 1.005-1.953v-7.124c0-.905-.787-1.639-1.765-1.645Zm-10.195-8.188c.354-.606 1.175-.833 1.83-.503.655.329.899 1.089.543 1.695l-.896 1.53a24.962 24.962 0 0 0-2.798-.465l1.321-2.257Zm-4.123-2.41c.321-.624 1.128-.889 1.801-.59.673.297.959 1.043.637 1.667l-1.804 3.501c-.408.012-.813.04-1.203.096-.769.094-1.432.212-2.013.338l2.582-5.012Zm-4.751 8.378c.179-.082 4.423-1.99 7.762-1.475 2.91.378 4.291 1.285 4.438 1.387.599.413.722 1.197.276 1.75-.446.553-1.295.669-1.89.254-.001 0-.684-.418-2.139-.729.132.294.207.615.207.953 0 1.37-1.2 2.48-2.679 2.48-1.479 0-2.678-1.11-2.678-2.48 0-.239.048-.467.116-.686-.959.274-1.787.592-2.222.79a1.447 1.447 0 0 1-.593.127c-.498 0-.979-.257-1.213-.7-.329-.618-.054-1.367.615-1.671Zm7.16 9.112-3.395 6.193c-.237.434-.711.684-1.206.684-.205 0-.414-.044-.609-.135-.666-.313-.93-1.066-.593-1.681l3.394-6.193c.337-.616 1.153-.863 1.816-.549.666.312.93 1.064.593 1.681Zm-8.713.403 2.207-.675c.298-.091.625-.045.879.127.255.17.405.443.405.733v.155c0 .653-.452 1.232-1.122 1.437l-2.492.762a1.625 1.625 0 0 1-.959-.004l-2.292-.714c-.741-.232-1.239-.873-1.239-1.596 0-.299.155-.581.417-.754.262-.174.599-.222.905-.126l2.087.651c.389.121.812.122 1.204.004Zm-4.675 6.326a1.43 1.43 0 0 1-.604.133c-.494 0-.972-.253-1.209-.691l-3.395-6.272c-.335-.618-.065-1.37.601-1.679.667-.308 1.479-.059 1.812.558l3.396 6.273c.335.617.065 1.369-.601 1.678Zm-4.591-24.811c.67-.297 1.479-.033 1.8.591l2.606 5.055a22.408 22.408 0 0 0-3.284-.564l-1.76-3.414c-.321-.624-.035-1.37.638-1.668Zm-4.151 2.499c.655-.331 1.475-.103 1.83.503l1.208 2.062c-.111.01-.223.015-.332.028-.996.105-1.808.254-2.483.412l-.766-1.31c-.356-.606-.112-1.366.543-1.695Zm-1.504 6.368c.148-.102 1.531-1.012 4.473-1.392 3.298-.513 7.549 1.397 7.729 1.48.668.304.944 1.053.616 1.672-.235.443-.715.701-1.213.701-.2 0-.403-.042-.593-.128a17.705 17.705 0 0 0-2.21-.787c.076.229.128.467.128.719 0 1.359-1.19 2.459-2.655 2.459-1.466 0-2.656-1.101-2.656-2.459 0-.361.09-.701.241-1.01-1.543.317-2.252.757-2.261.762-.605.39-1.444.265-1.876-.288-.432-.554-.315-1.321.277-1.729Zm-.399 8.983c-.335-.616-.066-1.368.6-1.678.671-.309 1.479-.06 1.814.556l4.105 7.567c.334.616.066 1.368-.6 1.678-.19.087-.396.133-.605.133-.495 0-.971-.253-1.209-.689l-4.105-7.567Zm25.416 13.987c-.43.957-1.61 1.412-2.649 1.012-5.943-2.29-9.541-2.28-16.047.046a2.172 2.172 0 0 1-.731.128c-.813 0-1.579-.457-1.89-1.201-.403-.966.117-2.053 1.159-2.425 7.495-2.683 12.128-2.685 19.065-.01 1.033.395 1.524 1.493 1.093 2.45Zm4.055-13.884-4.105 7.47c-.239.434-.713.683-1.206.683a1.42 1.42 0 0 1-.611-.137c-.664-.312-.929-1.067-.591-1.682l4.104-7.47c.339-.615 1.154-.864 1.817-.548.665.316.929 1.069.592 1.684Z"/></g><g filter="url(#m)" style="animation:float1 5s infinite"><path fill="#5716AF" fill-opacity=".38" d="M205.5 342c-13.509 0-24.5 10.991-24.5 24.5s10.991 24.5 24.5 24.5 24.5-10.991 24.5-24.5-10.991-24.5-24.5-24.5Zm16.562 18.561.899-.976a18.533 18.533 0 0 1 1.271 5.75l-2.116-2.119a1.917 1.917 0 0 1-.054-2.655Zm-31.991-4.822c.27-.387.555-.765.853-1.131a1.91 1.91 0 0 1 2.749-.234l6.758 5.886 1.581-4.546c.574-1.652 1.672-3.104 2.364-3.912.37-.43.911-.675 1.478-.67l3.669.038c.201.663.012 1.76-1.113 2.263-.141 2.066.38 4.211 1.171 6.808l7.8-5.951a1.92 1.92 0 0 1 1.388-.381c.495.059.947.307 1.262.693.333.408.649.831.947 1.266a1.915 1.915 0 0 1-.185 2.397l-13.579 14.457a2.274 2.274 0 0 1-1.663.717 2.288 2.288 0 0 1-1.662-.719l-13.644-14.573a1.917 1.917 0 0 1-.174-2.408Zm-2.028 3.704 1.027 1.114a1.918 1.918 0 0 1-.053 2.655l-2.306 2.31c.107-2.14.562-4.186 1.332-6.079Zm-.044 13.911a18.469 18.469 0 0 1-1.195-4.699l3.644-3.65a1.928 1.928 0 0 1 1.396-.563c.523.01 1.019.234 1.372.619l.22.239a1.92 1.92 0 0 1-.053 2.655l-5.384 5.399Zm1.035 2.189 5.782-5.798a1.93 1.93 0 0 1 1.397-.564c.259.005.514.063.75.17.236.106.448.259.623.45l.474.515a1.92 1.92 0 0 1-.054 2.657l-6.257 6.261a18.811 18.811 0 0 1-2.715-3.691Zm16.442 9.659c-4.257 0-8.175-1.432-11.331-3.817l5.776-5.893a2.278 2.278 0 0 1 3.212-.042l.851.824a2.28 2.28 0 0 0 3.193-.022l.77-.764a2.282 2.282 0 0 1 1.617-.663 2.288 2.288 0 0 1 1.611.677l5.734 5.806c-3.172 2.432-7.13 3.894-11.433 3.894Zm13.812-6.061-5.916-5.921a2.278 2.278 0 0 1 .669-3.686 2.243 2.243 0 0 1 1.773-.035c.282.114.538.285.753.501l5.419 5.433a18.86 18.86 0 0 1-2.698 3.708Zm3.712-5.917-5.023-5.036a2.257 2.257 0 0 1-.062-3.125 1.913 1.913 0 0 1 2.127-.479c.24.096.458.24.641.423l3.488 3.494a18.497 18.497 0 0 1-1.171 4.723Z"/></g><g filter="url(#n)"><path fill="#8B4CD8" fill-opacity=".38" d="M284.588 129.004a2.072 2.072 0 0 0-1.025.315c-.522.328-.813.847-.83 1.383-.019.116-.053.305-.099.561-1.113 6.216-1.568 11.807-1.634 16.686 1.317-.724 3.015-1.019 5.115-.831 2.764.245 4.85 2.198 6.869 4.085 1.926 1.802 3.917 3.665 6.488 4.17.702.138 1.146.759.993 1.39-.133.546-.669.919-1.267.919-.091 0-.187-.008-.279-.027-1.424-.279-2.663-.851-3.788-1.557-.367.891-1.314 1.532-2.431 1.532-1.434 0-2.598-1.047-2.598-2.337 0-.91.586-1.691 1.431-2.077l-.421-.393c-1.77-1.654-3.442-3.218-5.253-3.38-1.785-.157-3.155.106-3.966.767a2.366 2.366 0 0 0-.865 1.637c.126 4.329.547 7.968 1.028 10.822.061.365.258.685.532.943l-1.081 15.523c-.067.967.75 1.8 1.825 1.86.041.003.08.005.122.005 1.021 0 1.878-.714 1.943-1.643l.597-8.572c.324.508.58.856.705 1.018 2.14 2.653 4.775 4.972 7.828 6.892 2.309 1.459 5.029 2.256 7.94 2.303 2.837-.048 5.56-.845 7.866-2.301 3.058-1.923 5.694-4.242 7.853-6.922.151-.194.518-.703.977-1.465l.949 9.099c.093.908.943 1.591 1.936 1.591.061 0 .124-.002.185-.007 1.072-.091 1.858-.946 1.758-1.91l-1.621-15.563c.226-.242.384-.533.439-.856.486-2.819.916-6.402 1.066-10.649a2.388 2.388 0 0 0-.244-.999 2.388 2.388 0 0 0-.639-.806c-.81-.66-2.184-.924-3.966-.767-1.811.162-3.481 1.725-5.25 3.38l-.421.391c.845.385 1.431 1.166 1.431 2.076 0 1.291-1.166 2.338-2.599 2.338-1.117 0-2.062-.639-2.428-1.53-1.125.706-2.367 1.276-3.791 1.557a1.419 1.419 0 0 1-.276.027c-.598 0-1.137-.373-1.269-.919-.153-.631.29-1.254.992-1.39 2.571-.505 4.563-2.367 6.488-4.168 2.018-1.887 4.106-3.841 6.869-4.087 2.119-.188 3.831.116 5.153.853-.045-4.902-.481-10.515-1.583-16.751-.041-.24-.074-.415-.091-.525-.021-.524-.299-1.032-.805-1.36-.826-.542-1.98-.414-2.639.294a2.025 2.025 0 0 0-.238.308 33.598 33.598 0 0 1-3.459 3.992c-3.727-2.362-7.548-3.328-12.684-3.275-5.394.051-9.001.958-12.641 3.27a30.378 30.378 0 0 1-3.347-3.948 2.02 2.02 0 0 0-.249-.333c-.405-.444-1.005-.665-1.601-.639Zm31.187 33.921a8.392 8.392 0 0 1 2.289.21c-.534 1.868-1.178 3.373-1.743 4.464l-4.692-3.896c1.394-.435 2.812-.732 4.146-.778Zm-26.678.013c1.336.047 2.755.343 4.151.779l-4.694 3.898c-.57-1.095-1.216-2.604-1.751-4.469.72-.176 1.492-.236 2.294-.208Zm19.886 1.751 6.051 5.023-.025.034c-1.883 2.337-4.208 4.381-6.914 6.082a10.946 10.946 0 0 1-5.626 1.666c-2.058-.035-4.029-.61-5.704-1.668-2.701-1.699-5.027-3.745-6.889-6.05l-.036-.048 6.057-5.028c2.253.969 4.223 2.122 5.352 2.896.349.24.766.361 1.182.361.417 0 .837-.121 1.185-.361 1.132-.778 3.107-1.935 5.367-2.907Zm-7.912 5.742c-.861 0-2.359.622-3.296 1.057a.624.624 0 0 0-.386.47.581.581 0 0 0 .221.545c1.041.856 3.078 2.335 4.839 2.335 1.82 0 3.937-1.584 4.935-2.426a.477.477 0 0 0 .064-.691.525.525 0 0 0-.214-.149c-.979-.437-2.69-1.141-3.407-1.141-.52 0-.866.37-1.081.739a.314.314 0 0 1-.262.115.306.306 0 0 1-.142-.04.307.307 0 0 1-.109-.1c-.174-.363-.516-.714-1.162-.714Z"/></g><g filter="url(#o)"><path fill="#6229C5" fill-opacity=".38" d="M257 306c-10.513 0-19 6.237-19 21s8.487 35 19 35 19-20.237 19-35c0-14.763-8.487-21-19-21Zm-15 34s-1.743-1.936-.5-4.5l1.5 2-1 2.5Zm-1-13 1.324 1.85S238.5 319 247.154 312c0 0-2.154 2.055-2.154 6.5 0 4 1.477 4.5 2 4.5.61 0 .569-1.515.569-1.515S250.5 323.5 252.5 332v-4s2 2 2 6.5l-2.5-.5 2 3c-4.216 0-13-3-13-10Zm3.5 16s-2-2.5-.005-5.5l1 2-.995 3.5Zm1.5 9s-1-2 .5-4.5l.5 3.5-1 1Zm1-13 1.5 2-1 5s-2.5-3-.5-7Zm1 15.5s-1-2 .5-4.5l.5 3.5-1 1Zm2 2s-1-2.5.5-5.5l.5 4-1 1.5Zm.5-16.5 1.5 2.446-.897 6.224S248 344.5 250.5 340Zm2 18.5s-1.97-1.846.5-6.5l.5 4.5-1 2Zm2.5 1s-1.5-2.5.359-6.4L256 358l-1 1.5Zm.5-9.5s-4-4-1.5-8.5l2 2.5-.5 6Zm3.5 9.5-1-1.5.641-4.9c1.859 3.9.359 6.4.359 6.4Zm-.995-15.5 2-2.5c2.5 4.5-1.505 8.5-1.505 8.5l-.495-6Zm3.495 14.5-1-2 .5-4.5c2.47 4.654.5 6.5.5 6.5Zm2.5-2-1-1.5.5-4c1.5 3 .5 5.5.5 5.5Zm-1.103-7.83-.897-6.224 1.5-2.446c2.5 4.5-.603 8.67-.603 8.67ZM266 354.5l-1-1 .5-3.5c1.5 2.5.5 4.5.5 4.5Zm-.5-13.5 1.5-2c2 4-.5 7-.5 7l-1-5Zm2.5 11-1-1 .5-3.5c1.5 2.5.5 4.5.5 4.5Zm1.5-9-.995-3.5 1-2c1.995 3-.005 5.5-.005 5.5Zm-9.5-6 2-3-2.5.5c0-4.5 2-6.5 2-6.5v4c2-8.5 4.931-10.515 4.931-10.515S266.39 323 267 323c.523 0 2-.5 2-4.5 0-4.445-2.154-6.5-2.154-6.5 8.654 7 4.83 16.85 4.83 16.85L273 327c0 7-8.784 10-13 10Zm12 3-1-2.5 1.5-2c1.243 2.564-.5 4.5-.5 4.5Z"/></g><g filter="url(#p)"><path fill="#6229C5" fill-opacity=".38" d="M387.068 379c.667 2.168.635 4.476 0 5.625-4.39-4.98-13.363-4.5-13.363-4.5.917 1.474 1.647 3.456 1.67 5.062-5.615-3.396-11.693-.562-11.693-.562 1.676 1.692 2.09 3.298 2.227 4.5A13.408 13.408 0 0 0 357 392.5c2.068 1.096 3.855 2.891 4.455 4.5l-1.114 4.5c.386.21.756.514 1.111.872-.002 1.055-.003 2.916-.004 4.753h-3.008c-.366 0-.715.158-.959.435a1.308 1.308 0 0 0-.322 1.011l.955 8.679 2.703 2.731-.154 1.529c-.244 2.42-.322 3.236-.322 3.615 0 1.821.903 3.604 2.545 6.84.315.62.662 1.298 1.035 2.048 2.018 4.041 4.366 7.989 8.907 7.989h17.344c4.546 0 6.981-4.124 8.907-7.989.366-.735.708-1.407 1.022-2.026 1.596-3.146 2.558-5.043 2.558-6.862 0-.379-.078-1.195-.322-3.615-.067-.665-.141-1.4-.215-2.164l2.764-2.096.97-8.833a1.158 1.158 0 0 0-1.144-1.292h-3.16l-.004-4.555 1.111-4.445 3.341-2.25-2.227-2.25L406 390.25h-4.455c.472-2.468.985-5.006 0-6.75l-4.454 3.375c-2.989-7.011-10.023-7.875-10.023-7.875Zm-17.818 21.375 2.227 2.25 3.341-2.25 3.341 3.375 3.341-3.375 3.341 4.5 4.454-4.5 3.341 3.375 3.341-3.375 1.118 2.905c.004 2.475.007 6.84-.004 8.415-.008 1.194.153 3.331.359 5.597l-2.482 3.137a5.652 5.652 0 0 0-1.218 3.505v10.534c-1.496 2.455-2.522 3.032-3.578 3.032h-17.344c-1.055 0-2.08-.575-3.578-3.035v-10.661c0-1.273-.43-2.51-1.218-3.504l-2.473-3.123c.2-2.222.358-4.308.35-5.482-.005-.88-.006-2.635-.006-4.443l3.347-6.877Zm24.833 7.508-9.466 5.062c-.547.293-.89.867-.89 1.492v5.074c-.91.224-1.63.656-2.184 1.072a5.891 5.891 0 0 0-2.27-1.035v-5.5a1.69 1.69 0 0 0-.862-1.476l-8.352-4.674-1.618 2.953 2.575 1.442a2.248 2.248 0 0 0-.652 1.582c0 1.234 1.005 2.25 2.227 2.25 1.048 0 1.932-.75 2.164-1.743l1.177.66v6.016c0 .931.746 1.687 1.668 1.687 1.472.001 2.005.54 2.569 1.108l.165.164c.31.308.729.48 1.166.479.36 0 .72-.117 1.024-.353.141-.111.291-.244.457-.391.755-.665 1.316-1.098 2.278-1.013.473.04.926-.123 1.27-.442a1.695 1.695 0 0 0 .539-1.239v-5.603l1.297-.695a2.235 2.235 0 0 0 2.044 1.365c1.222 0 2.227-1.016 2.227-2.25a2.244 2.244 0 0 0-.356-1.209l3.365-1.801-1.562-2.982Zm-19.402 17.861c-1.363.081-2.09 1.28-2.09 2.659v1.784c0 1.429.936 2.813 2.264 2.813h13.29c1.328 0 2.264-1.384 2.264-2.813v-1.784c0-1.361-.86-2.543-2.053-2.652l-.633 2.749c-4.823.64-7.519.639-12.348 0l-.694-2.756Z"/></g><g filter="url(#q)"><path fill="#6229C5" fill-opacity=".38" d="M80.5 528c0 3.5 1 6.5 3 8-1.5-.5-2.5-.5-4 0 0 2.5.5 4.5 3 7-2-.5-3.5 0-3.5 0 0 2.83 2.939 6.319 6.719 7.539.326-2.128.945-4.2 1.84-6.158-.61-2.5.941-7.231.941-9.381 0-4-3.5-7-8-7Zm24.949 0c-8.09 4.04-13 9.45-15.33 15-1.047 2.463-1.575 4.951-1.654 7.363l-.016.016V551c.086 3.832-.01 7.62-.793 11.273-.76 3.647-2.256 7.119-4.496 10.11l-.572.763.676.584c1.605 1.385 3.268 2.388 5.045 3.311a35.26 35.26 0 0 0 5.498 2.238c1.761.537 3.56.941 5.375 1.225.483.32 1.049.492 1.629.496h9.277c.54 0 1.054-.16 1.51-.428a40.066 40.066 0 0 0 5.568-1.181c1.895-.579 3.752-1.297 5.523-2.219a23.887 23.887 0 0 0 2.581-1.537c.42-.276.823-.585 1.224-.899.198-.163.397-.317.59-.494l.293-.262.144-.138.038-.035.017-.02c.036-.034.069-.07.1-.109.148-.179.246-.431.271-.637a13.285 13.285 0 0 0-.97-1.736l-.141-.207-.094-.153-.181-.297-.366-.595a23.779 23.779 0 0 1-1.265-2.479 27 27 0 0 1-1.692-5.301c-.779-3.653-.875-7.441-.789-11.273v-.621l-.015-.016c-.08-2.412-.607-4.9-1.655-7.363-2.33-5.55-7.24-10.96-15.33-15Zm25 0c-4.5 0-8 3-8 7 0 2.18 1.58 6.979.92 9.449.07.13.12.261.18.391a23.578 23.578 0 0 1 1.631 5.721c3.8-1.21 6.769-4.721 6.769-7.561 0 0-1.5-.5-3.5 0 2.5-2.5 3-4.5 3-7-1.5-.5-2.5-.5-4 0 2-1.5 3-4.5 3-8Zm-28.894 5.211 1.789 3.576c-1.578.705-3.059 1.817-4.326 3.166-1.272 1.352-2.337 2.942-3.198 4.656l-2.74-1.218c.814-2.017 1.886-3.965 3.283-5.719 1.396-1.75 3.114-3.314 5.192-4.461ZM94.449 551h7.131a4.004 4.004 0 0 0 3.869 3 4 4 0 0 0 3.869-3h7.131v3.66c-2.56-1.471-6.595-.096-8 .84l1.473 2.455c-.303.401-.473.789-.473 1.045a9.104 9.104 0 0 1 2-1.217 1.248 1.248 0 0 0 1.6 1.166 1.251 1.251 0 0 0 .721-1.844c.717-.105 1.304-.105 1.679-.105-1.626-.929-3.032-.774-4.076-.246 1.61-1.024 3.787-1.594 5.076-1.719v13.35c0 .163-.02.326-.06.484l-.557 2.233a2.014 2.014 0 0 1-.436.832L110.088 578h-9.277l-5.309-6.066a2.007 2.007 0 0 1-.436-.832l-.556-2.233a1.98 1.98 0 0 1-.06-.484v-13.35c1.288.125 3.465.695 5.075 1.719-1.044-.528-2.45-.683-4.076.246.375 0 .962 0 1.68.105a1.252 1.252 0 0 0 1.07 1.895 1.25 1.25 0 0 0 1.248-1.217A9.025 9.025 0 0 1 101.45 559c0-.256-.169-.644-.472-1.045l1.472-2.455c-1.404-.936-5.44-2.311-8-.84l-.001-3.66Zm-3 .621v16.764c0 .409.05.816.149 1.213l.558 2.232c.192.77.565 1.483 1.088 2.08l3.592 4.104a36.53 36.53 0 0 1-2.434-.645 33.206 33.206 0 0 1-5.177-2.107c-1.359-.696-2.71-1.524-3.883-2.43 2.236-2.954 3.845-6.398 4.752-9.984.957-3.698 1.234-7.493 1.332-11.203l.023-.024Zm28 0 .024.024c.097 3.711.376 7.505 1.334 11.203a29.295 29.295 0 0 0 2.088 5.681c.442.91.951 1.79 1.494 2.641l.422.629.21.312.104.155.072.086c.141.158.319.293.514.433-.149.133-.308.26-.465.389a22.022 22.022 0 0 1-3.48 2.222c-1.643.856-3.386 1.531-5.17 2.077-.869.251-1.748.468-2.635.656l3.693-4.221a5.01 5.01 0 0 0 1.088-2.08l.559-2.232c.099-.395.148-.803.148-1.211v-16.764Zm-17 16.379-2 2h10l-2-2h-6Zm0 4 1 2h4l1-2h-6Z"/></g><g filter="url(#r)"><path fill="#6229C5" fill-opacity=".38" d="M59 543.801C59 538.973 52.984 528 36.94 528c-10.026 0-17.045 4.828-20.554 9.656-2.54 3.493-1.003 14.485 0 15.802 1.002 1.316 2.005 2.194 3.509 3.072-2.005 0-3.008.878-3.008 1.756s.217 3.356 1.003 4.389c1.002 1.317 2.506.878 3.008.439 1.002-.878 2.005.878 4.01.878v-.878c-1.002 0-2.506-.878-1.002-1.756 1.504-.878 4.512-2.194 5.013-1.756.502.439 0 2.634 0 3.512 0 .878 1.504 13.606 1.504 15.362.502.878 1.504 1.317 2.507 1.317v-15.801c1.003 2.633 1.003 15.362 1.003 16.679.501.439 2.005.439 3.008 0 0-1.756 0-16.679.501-16.679.502 0 .502 16.679.502 16.679 1.503-.439 2.005-1.317 2.005-2.634s.501-13.167.501-14.923l2.006.878c-.502 3.511-1.003 12.728-1.504 16.679 1.504-.439 2.506-1.317 3.008-3.073.365-1.277 2.122-14.893 2.506-16.24.502-1.756 6.017-2.194 5.515-.439-.501 1.756-.501 2.195.502 2.195 1.002 0 4.512-1.317 4.512-3.512 0-2.194-1.003-1.755 0-4.389C57.997 552.58 59 546.874 59 543.801Zm-29.58 10.973c-1.002 0-7.018-.878-8.522-1.755-3.008-1.756-3.008-7.023-2.006-7.023 1.003 0 16.043 7.462 16.043 7.462s-4.513 1.316-5.515 1.316Zm5.014 5.267c-1.003-.877-1.003-1.755-.501-2.194l1.002-.878c.502-.439.502-1.756 1.505-2.195.5.878-.502 4.39-2.006 5.267Zm5.014.439c-1.505 0-1.505-4.389-1.505-5.267 0 0 2.507 3.073 2.507 3.512 0 .439 0 1.755-1.003 1.755h.001Zm14.037-7.461c-1.002.877-6.517 1.755-8.523 1.755-2.005 0-6.016-1.316-6.016-1.316s13.035-7.023 16.043-7.023c2.507 0-.501 5.706-1.504 6.584Z"/></g><g filter="url(#s)"><path fill="#6229C5" fill-opacity=".38" d="M358.5 170c-11.75 0-17.625 5.278-17.625 5.278l-3.525 12.667-2.35 1.056v11.611l2.35 2.111 4.7 15.834 8.225 7.389S356.15 227 358.5 227c2.35 0 8.225-1.054 8.225-1.054l8.225-7.389 4.7-15.834 2.35-2.111v-11.611l-2.35-1.056-3.525-12.667S370.25 170 358.5 170Zm-7.05 7.389 1.175 10.556 2.35 2.111h7.05l2.35-2.111 1.175-10.556c4.7 0 7.05 3.167 7.05 3.167v12.667l3.525 6.334-9.4 13.722v2.112l1.175 4.222-2.35 2.111-3.525-1.056h-7.05l-3.525 1.056-2.35-2.111 1.175-4.222v-2.112l-9.4-13.722 3.525-6.334v-12.667s2.35-3.167 7.05-3.167Zm-6.463 21.112-.587 1.583 2.933 2.12 6.467 1.575 1.175-3.167-9.988-2.111Zm27.025 0-9.987 2.111 1.175 3.167 6.467-1.575 2.933-2.12-.588-1.583Z"/></g><g filter="url(#t)" style="animation:float5 4s infinite"><path fill="#6229C5" fill-opacity=".38" d="M132 462c-14.336 0-26 11.664-26 26s11.664 26 26 26 26-11.664 26-26-11.664-26-26-26Zm0 4c12.174 0 22 9.826 22 22s-9.826 22-22 22-22-9.826-22-22 9.826-22 22-22Zm0 7c-8.271 0-15 6.729-15 15s6.729 15 15 15 15-6.729 15-15-6.729-15-15-15Zm.053 2 2.968 9.045h9.586l-7.693 5.803 2.969 9.177-7.83-5.668-7.828 5.668 2.968-9.177-7.693-5.803h9.584l2.969-9.045Z"/></g><g filter="url(#u)"><path fill="#6229C5" fill-opacity=".38" d="M291.148 273.003a1.35 1.35 0 0 0-.612.186c-.371.219-.573.592-.529.977l1.033 8.861 4.659 5.998c-.745-7.063-.758-12.908-.758-12.977 0-.354.207-.685.55-.882.018-.009.19-.107.49-.255l-4.193-1.799a1.404 1.404 0 0 0-.64-.109Zm39.701 0a1.418 1.418 0 0 0-.637.109l-4.195 1.799c.298.148.474.246.492.255.344.197.55.528.55.882 0 .069-.013 5.876-.751 12.908l4.645-5.857 1.04-8.933c.044-.385-.157-.759-.529-.977a1.362 1.362 0 0 0-.615-.186Zm-21.084 1.084c-2.596.102-5.045.507-7.031.938l.83 13.468 5.914 6.09a.968.968 0 0 1 .287.677v7.42h2.47v-7.42c0-.248.101-.488.285-.679l5.913-6.088.833-13.472c-1.984-.43-4.443-.832-7.031-.934v11.633c0 .586-.553 1.06-1.235 1.06s-1.235-.474-1.235-1.06v-11.633Zm11.94 1.53-.825 13.339a.988.988 0 0 1-.282.623l-5.892 6.064v.973l8.707-4.254c.974-7.085 1.141-13.721 1.168-15.712-.55-.255-1.113-.48-1.686-.676l.004-.013a55.931 55.931 0 0 0-1.194-.344Zm-21.41.002c-.399.109-.797.223-1.194.342l.004.01c-.574.196-1.137.423-1.686.68.028 2.003.198 8.715 1.187 15.846l8.688 4.142v-.996l-5.892-6.064a.977.977 0 0 1-.282-.623l-.825-13.337Zm-9.66 10.71c-.325 1.402-.635 3.581-.635 6.811 0 3.762.927 6.703 1.216 7.528-.057.601-.103 2.187.497 4.739l.017-.006c1.025 1.821 2.587 3.59 3.216 3.639h2.466c.468 0 .895.227 1.105.586l3.706 6.36c.237.408.145.901-.232 1.224l-2.997 2.571c3.78 4.327 7.528 6.012 7.743 6.105.173.075.363.114.557.114h7.412c.194 0 .384-.039.557-.114.216-.093 4.008-1.797 7.81-6.18l-2.91-2.496c-.376-.323-.468-.816-.231-1.224l3.706-6.36c.21-.359.636-.586 1.105-.586h2.47c.572-.045 1.985-1.609 2.987-3.267.694-2.767.643-4.475.584-5.105.289-.825 1.216-3.766 1.216-7.528 0-3.22-.308-5.393-.632-6.796l-5.759 7.26a1.202 1.202 0 0 1-.41.325l-10.493 5.128v3.876c.453.069.87.143 1.216.228l9.902-3.661h3.705l-4.941 5.3h-6.109l-2.601 6.696c-.135.348-.471.61-.887.695-.094.019-.19.029-.285.029-.324 0-.64-.109-.873-.31-.025-.019-.957-.75-2.833-.75-1.876 0-2.809.731-2.847.762a1.367 1.367 0 0 1-.856.29c-.099 0-.2-.01-.297-.031-.408-.089-.743-.343-.876-.685l-2.603-6.696h-6.109l-4.941-5.3h3.706l9.901 3.661c.346-.084.764-.16 1.216-.23v-3.868l-10.481-4.997a1.2 1.2 0 0 1-.429-.338l-5.749-7.399ZM311 304.8c-2.504 0-3.932.286-4.673.514l1.647 4.244c.743-.279 1.75-.518 3.026-.518 1.276 0 2.283.239 3.026.518l1.65-4.248c-.725-.22-2.156-.51-4.676-.51Zm-17.47 6.002c.389.909.836 1.874 1.361 2.903a29.983 29.983 0 0 0 2.67 4.308l2.054-1.762-2.966-5.091h-1.708c-.484 0-.957-.136-1.411-.358Zm34.904.085c-.384.172-.8.265-1.221.273h-1.708l-2.965 5.091 1.957 1.679a30.076 30.076 0 0 0 2.615-4.223c.508-.997.942-1.935 1.322-2.82Z"/></g><g filter="url(#v)"><path fill="#8B4CD8" fill-opacity=".38" d="M58.375 465c-5.818 0-10.398 2.958-13.391 6.652-2.993 3.695-4.562 8.103-4.562 11.735 0 5.455 1.155 7.602 1.155 11.469 0 3.51-.862 5.275-1.933 7.44-1.072 2.166-2.378 4.721-2.64 8.822a1.65 1.65 0 0 0 .14.778c.11.244.278.461.49.633a1.816 1.816 0 0 0 1.554.352l47.455.025a1.829 1.829 0 0 0 1.652-.251c.233-.169.419-.391.541-.645a1.65 1.65 0 0 0 .161-.814c-.25-4.141-1.559-6.711-2.635-8.884-1.077-2.173-1.94-3.935-1.94-7.456 0-3.867 1.154-6.013 1.154-11.469 0-3.632-1.571-8.04-4.564-11.735-2.993-3.694-7.573-6.652-13.39-6.652-1.999 0-3.422 1.019-4.524 1.681h-.002a.265.265 0 0 1-.196 0c-1.104-.664-2.529-1.681-4.525-1.681Zm4.982 12.632c2.063-.006 4.578.186 10.3.52v7.62a9.73 9.73 0 0 0-1.354-.082c-.74.01-1.527.111-2.314.362-3.11.99-4.964 3.501-4.964 3.501a1.095 1.095 0 0 0-.092 1.286c.081.132.189.246.317.337a1.228 1.228 0 0 0 1.337.043c.133-.083.25-.191.341-.318 0 0 .338-.391.846-.863a1.7 1.7 0 0 0 .62.966 1.819 1.819 0 0 0 2.159.049c.3-.21.525-.51.642-.857a1.646 1.646 0 0 0-.005-1.057 1.713 1.713 0 0 0-.651-.851c.066-.024.126-.057.194-.078.95-.302 2.037-.242 2.924-.098v8.56c0 3.385-1.725 6.553-4.636 8.5l-3.735 2.496a4.146 4.146 0 0 1-4.58 0l-3.736-2.496c-2.912-1.945-4.638-5.114-4.638-8.5v-8.631c.905-.138 1.996-.191 2.959.111v-.002c.077.024.146.06.222.087-.31.208-.542.506-.664.85a1.644 1.644 0 0 0-.012 1.062c.114.346.34.649.644.864a1.83 1.83 0 0 0 2.187-.066c.319-.255.535-.61.61-1.003.579.521.949.957.949.957a1.165 1.165 0 0 0 .78.457c.312.047.63-.029.886-.212.124-.089.23-.202.31-.333a1.105 1.105 0 0 0-.08-1.271s-1.911-2.551-5.098-3.552a8.28 8.28 0 0 0-2.37-.364 9.917 9.917 0 0 0-1.323.077v-7.547c6.196-.315 8.955-.517 11.025-.524Zm-.58 1.223c-2.343 0-4.486 1.397-4.486 3.722 0 1.628.749 2.092.749 2.092.074.069.149.14.25.21v.489c0 .773 1.019 1.061 1.37 1.137v.633c-.002.435.412.788.925.788h2.883c.511 0 .926-.352.926-.788v-.633c.35-.076 1.372-.365 1.372-1.137v-.489c.1-.069.174-.14.25-.21 0 0 .748-.696.748-2.092-.002-2.325-2.146-3.722-4.488-3.722h-.499Zm-1.31 4.273c.165-.004.33.022.486.077.548.187.75.86.575 1.301-.224.697-.9.978-1.698.769-.298-.094-.67-.511-.346-1.395.148-.453.522-.737.983-.752Zm3.094.017c.453.022.85.279.981.733.326.885.001 1.279-.346 1.394-.774.234-1.447-.068-1.698-.766-.15-.488.05-1.162.598-1.301.156-.046.313-.067.465-.06Zm-1.534 1.99c.324.116.873.93.873 1.372-.001.209-.15.324-.351.324-.275 0-.473-.44-.522-.626 0 .233-.2.626-.525.626-.198 0-.348-.115-.348-.324 0-.441.549-1.302.873-1.372Zm-1.624 15.287c-1.042 0-2.88.78-3.969 1.291-.206.096-.327.255-.318.424.008.168.142.323.358.41 1.247.509 3.548 1.319 5.544 1.319 1.996 0 4.296-.81 5.543-1.319.21-.085.34-.237.344-.402.005-.163-.116-.317-.323-.408-1.158-.509-3.12-1.315-3.948-1.315-.669 0-1.092.215-1.337.407a.382.382 0 0 1-.238.069.349.349 0 0 1-.224-.085c-.196-.187-.6-.391-1.432-.391Zm20.865 1.561.065.027c.004.009.005.018.01.027l-.075-.054Z"/></g><g filter="url(#w)" style="animation:float4 4s 1s infinite"><path fill="#5716AF" fill-opacity=".38" d="M386.341 484.002H371.15l15.191-14.998v14.998Zm5.326 13.018c2.567-2.166 4.74-4.733 6.12-7.892h-6.12v7.892Zm-13.418-38.074c-11.838 0-21.303 9.665-21.303 21.503 0 11.838 9.665 21.503 21.503 21.503 2.96 0 5.719-.585 8.093-1.572v-11.052h-22.104v-2.96l24.863-24.462c-3.353-1.973-6.906-2.96-11.052-2.96Zm13.618 4.732v20.324h7.692c.201-1.187.393-2.366.393-3.553-.192-6.705-3.352-12.825-8.085-16.771Zm12.031 16.771c0 14.205-11.437 25.449-25.449 25.449-14.011 0-25.449-11.244-25.449-25.449C353 466.245 364.438 455 378.449 455c14.012 0 25.449 11.245 25.449 25.449Zm-1.379 0c0-13.218-10.652-24.069-24.07-24.069-13.218 0-24.069 10.851-24.069 24.069 0 13.218 10.851 24.07 24.069 24.07 13.218 0 24.07-10.852 24.07-24.07Z"/></g><g filter="url(#x)"><path fill="#6229C5" fill-opacity=".38" d="M266.018 192.737c.248-3.072.41-6.061.41-9.758 0 0-.117-.226-.469-.678l-1.879.678-.014-2.275s0-1.382-1.596-2.457c-1.174-.678-3.032-.998-3.032-.998s-.642 1.322-1.23 3.47c-.047.183-.128.439-.219.717l-2.875-2.703a23.597 23.597 0 0 1-.37-1.387l-2.407-1.148-1.159-1.099-1.189 1.099-1.204 1.716-1.808.665c-.426-.575-.834-1.095-1.081-1.322l-.781-.725-1.024.347c-.553.193-1.089.434-1.6.72l-.873.501.039 2.515-3.554 2.116c-.346-1.526-1.043-2.544-1.615-3.182.234-1.14.027-2.673-.619-3.314-1.407-1.676-8.224-1.16-8.224-1.16s1.478 4.346 3.12 6.209c1.006 1.044 2.722.535 4.014-.021.556.565 1.039 1.431 1.113 2.786l-2.068 1.232-.219.01-1.29-2.346-4.637 1.164s0 2.26.469 7.684c.03.611.08 1.188.147 1.732L227 196.941l.181.55c.424 1.286.908 2.364 1.297 3.231.367.812.681 1.513.784 2.067.118.522.22 1.296.339 2.194.321 2.423.76 5.741 2.104 8.967l.481 1.166c1.47 3.593 2.531 6.189 6.113 8.355.539.326 1.031.632 1.486.913 2.544 1.576 4.225 2.616 6.528 2.616 2.667 0 6.939-1.399 9.473-3.74 2.128-1.963 3.662-3.382 6.148-6.828 1.658-2.425 4.394-9.201 5.002-16.04.243-2.727-.232-5.388-.918-7.655Zm-32.494 4.866-2.436-6.575c-.285-1.583-.057-3.058.624-4.369l1.306 2.458c1.118-2.622 2.396-2.572 3.018-3.005-2.499 3.603-2.512 11.491-2.512 11.491Zm21.818-11.52a4.214 4.214 0 0 0 .523-2.051l.003-2.455c1.665 1.703 3.025 2.126 4.657.509l-2.569 9.565-.912-4.135-.913 1.155c-.352.339-.891 1.209-1.009 1.548l-1.584 4.043.041-1.511c.002-2.374.589-4.634 1.763-6.668Zm-5.284-1.582c0-1.017 0-1.921.235-2.938l.702-4.098s1.395 1.006 2.569 1.571l-.144 3.488c-.288 1.109-.888 2.427-1.584 4.02l-1.849 3.258.071-5.301Zm-1.848-4.309-.529 5.037c0 .791-2.089 3.235-2.977 4.089l.577-3.349c-.063-1.036.15-2.101-.024-2.934l-1.656-3.075c.938.678 4.609.232 4.609.232Zm-11.917 9.74c0-.74.107-1.486.3-2.165l1.244-3.346 1.413.986 1.393-2.402.04 3.887c0 .452.016.727.251 1.179l.688 1.194c.117.339.235.791.235 1.243.009.059.013.195.013.391 0 1.024-.107 3.7-.154 5.717l-1.247-5.614c-.118-.565-1.035-1.849-1.035-1.849s-1.066 1.707-1.066 2.95l-.16 3.401-1.685-3.784a6.743 6.743 0 0 1-.23-1.788Zm.788 16.764c0-.325.063-.634.153-.932a1.77 1.77 0 0 0 1.577.944c.976 0 1.767-.759 1.767-1.693 0-.679-.419-1.26-1.022-1.53.33-.1.676-.168 1.04-.168 1.941 0 3.514 1.514 3.514 3.379 0 1.866-1.573 3.379-3.514 3.379-1.941 0-3.515-1.512-3.515-3.379Zm10.458 13.569c-2.811-.031-4.113-1.353-4.61-3.39.081.003 3.305.019 4.7.012 2.111-.01 3.172 1.149 4.7 1.109 0 0-1.846 2.301-4.79 2.269Zm7.141-10.197c-1.945 0-3.521-1.511-3.521-3.373 0-.34.068-.662.167-.973.281.581.89.986 1.601.986.975 0 1.767-.759 1.767-1.693 0-.682-.423-1.266-1.029-1.534.323-.094.66-.159 1.015-.159 1.944 0 3.52 1.511 3.52 3.373 0 1.862-1.576 3.373-3.52 3.373Zm8.342-19.179-3.213 4.673 1.363-6.29c-.312-1.571.384-3.142 1.332-4.092l-.132-3.462c.384 1.455.865 2.218 1.249 2.957.528.277.912.185 1.656-.046-.743 2.17-2.327 3.529-2.255 6.26Z"/></g><g filter="url(#y)" style="animation:float2 5s infinite,grow 3s infinite"><path fill="#6228C6" fill-opacity=".38" d="M66.455 20.82c-.25 0-.499.032-.74.097l-34.05 8.515a2.534 2.534 0 0 0-1.813 1.682L20.49 59.887a2.42 2.42 0 0 0-.106 1.035c.003.01-.01.029-.006.04.021.17.073.338.13.503.015.042.009.087.024.124.085.214.212.424.357.616.066.106.149.198.243.277l4.653 6.233c.42-.718.843-1.426 1.05-1.71.693-.937 1.761-1.24 2.594-1.49.433-.131.837-.236 1.109-.41.312-.208.88-1.435 1.297-2.32 1.055-2.24 2.468-5.307 5.258-6.892.828-.469 1.768-.83 2.668-1.158.942-.341 1.851-.662 2.539-1.095 1.87-1.19 2.844-3.042 3.902-5.023 1.133-2.122 2.317-4.318 4.63-5.89 1.464-.994 3.119-1.447 4.71-1.878 1.297-.352 2.528-.668 3.573-1.272.935-.54 1.737-1.32 2.605-2.136 1.09-1.023 2.216-2.1 3.668-2.794.427-.202.875-.33 1.323-.5.756-.277 1.46-.54 1.916-.981.485-.467.746-1.202 1.055-2.032.252-.672.52-1.386.936-2.05.16-.31.713-1.216 1.774-1.97l-3.842-5.109a1.197 1.197 0 0 0-.142-.141 2.63 2.63 0 0 0-1.206-.898 2.423 2.423 0 0 0-.747-.146Zm-2.762 3.245L23.64 58.474l8.647-26.571 31.406-7.838Zm10.23 5.083c-.726.483-1 1.101-1.006 1.11l-.108.187c-.29.449-.485 1.007-.71 1.596-.366.979-.77 2.088-1.67 2.955-.843.815-1.922 1.198-2.844 1.537-.373.14-.716.283-1.074.454-1.094.522-2.05 1.387-3.035 2.318-.938.882-1.904 1.786-3.096 2.47-1.336.771-2.782 1.172-4.179 1.55-1.449.392-2.823.753-3.929 1.505-1.794 1.22-2.781 3.06-3.817 4.995-1.168 2.183-2.365 4.437-4.806 5.985-.921.587-1.986.977-3.02 1.35-.834.302-1.595.573-2.232.937-2.087 1.19-3.292 3.746-4.252 5.782-.729 1.548-1.3 2.77-2.213 3.363-.578.378-1.239.547-1.798.715-.543.16-1.028.31-1.21.556-.194.265-.836 1.381-1.433 2.423l2.924 3.888.197-.537c2.297-5.417 4.884-6.248 7.384-7.076 1.76-.584 3.555-1.179 5.895-3.69.254-.293.91-1.614 1.371-2.554 1.096-2.243 2.464-5.03 4.127-6.607 1.382-1.31 4.452-3.061 8.33-5.204 1.364-.752 2.643-1.434 3.336-1.871 1.83-1.16 3.017-2.66 4.378-4.39 2.345-2.981 5.012-6.371 11.556-8.586l.21-.052.503-.13-3.779-4.979Zm-23.24-.217a1.282 1.282 0 0 0-1.446 1.088 1.282 1.282 0 0 0 1.088 1.447 1.282 1.282 0 0 0 1.447-1.089 1.281 1.281 0 0 0-1.089-1.446Zm-8.142 2.726a1.283 1.283 0 0 0-1.447 1.088 1.283 1.283 0 0 0 1.089 1.447 1.284 1.284 0 0 0 1.446-1.088 1.282 1.282 0 0 0-1.088-1.447Zm37.745 5.905-2.2.416c-5.382 1.85-7.437 4.493-9.635 7.283-1.447 1.84-2.96 3.752-5.35 5.262-.792.499-2.076 1.186-3.555 2.002-2.553 1.411-6.387 3.56-7.523 4.632-1.161 1.103-2.415 3.647-3.325 5.508-.867 1.776-1.38 2.795-1.98 3.437-3.013 3.235-5.527 4.086-7.54 4.75-2.14.708-3.431 1.12-5.006 4.827l-.963 2.813 1.298 1.678c.413.543 1.002.91 1.675 1.005l.08.01a2.644 2.644 0 0 0 1.984-.607l43.372-37.293a2.525 2.525 0 0 0 .368-3.462l-1.7-2.261Zm-44.62-3a1.282 1.282 0 0 0-1.2 2.037c.203.271.506.45.842.499a1.283 1.283 0 0 0 1.447-1.088 1.282 1.282 0 0 0-1.089-1.448Zm4.711 3.253a1.284 1.284 0 0 0-1.446 1.088 1.282 1.282 0 0 0 1.088 1.447 1.282 1.282 0 0 0 1.446-1.089 1.282 1.282 0 0 0-1.088-1.446Zm-8.68 6.528a1.284 1.284 0 0 0-1.446 1.088 1.283 1.283 0 0 0 1.088 1.447 1.282 1.282 0 0 0 1.446-1.088 1.283 1.283 0 0 0-1.088-1.447Z"/></g></g></g><defs><filter id="c" width="66.955" height="68" x="336.522" y="309" color-interpolation-filters="sRGB" filterUnits="userSpaceOnUse"><feFlood flood-opacity="0" result="BackgroundImageFix"/><feColorMatrix in="SourceAlpha" result="hardAlpha" values="0 0 0 0 0 0 0 0 0 0 0 0 0 0 0 0 0 0 127 0"/><feOffset dy="4"/><feGaussianBlur stdDeviation="2"/><feComposite in2="hardAlpha" operator="out"/><feColorMatrix values="0 0 0 0 0 0 0 0 0 0 0 0 0 0 0 0 0 0 0.25 0"/><feBlend in2="BackgroundImageFix" result="effect1_dropShadow_45_2"/><feBlend in="SourceGraphic" in2="effect1_dropShadow_45_2" result="shape"/></filter><filter id="e" width="48" height="63.873" x="161" y="406" color-interpolation-filters="sRGB" filterUnits="userSpaceOnUse"><feFlood flood-opacity="0" result="BackgroundImageFix"/><feColorMatrix in="SourceAlpha" result="hardAlpha" values="0 0 0 0 0 0 0 0 0 0 0 0 0 0 0 0 0 0 127 0"/><feOffset dy="4"/><feGaussianBlur stdDeviation="2"/><feComposite in2="hardAlpha" operator="out"/><feColorMatrix values="0 0 0 0 0 0 0 0 0 0 0 0 0 0 0 0 0 0 0.25 0"/><feBlend in2="BackgroundImageFix" result="effect1_dropShadow_45_2"/><feBlend in="SourceGraphic" in2="effect1_dropShadow_45_2" result="shape"/></filter><filter id="f" width="60" height="58" x="209" y="108" color-interpolation-filters="sRGB" filterUnits="userSpaceOnUse"><feFlood flood-opacity="0" result="BackgroundImageFix"/><feColorMatrix in="SourceAlpha" result="hardAlpha" values="0 0 0 0 0 0 0 0 0 0 0 0 0 0 0 0 0 0 127 0"/><feOffset dy="4"/><feGaussianBlur stdDeviation="2"/><feComposite in2="hardAlpha" operator="out"/><feColorMatrix values="0 0 0 0 0 0 0 0 0 0 0 0 0 0 0 0 0 0 0.25 0"/><feBlend in2="BackgroundImageFix" result="effect1_dropShadow_45_2"/><feBlend in="SourceGraphic" in2="effect1_dropShadow_45_2" result="shape"/></filter><filter id="g" width="60" height="60" x="217" y="241" color-interpolation-filters="sRGB" filterUnits="userSpaceOnUse"><feFlood flood-opacity="0" result="BackgroundImageFix"/><feColorMatrix in="SourceAlpha" result="hardAlpha" values="0 0 0 0 0 0 0 0 0 0 0 0 0 0 0 0 0 0 127 0"/><feOffset dy="4"/><feGaussianBlur stdDeviation="2"/><feComposite in2="hardAlpha" operator="out"/><feColorMatrix values="0 0 0 0 0 0 0 0 0 0 0 0 0 0 0 0 0 0 0.25 0"/><feBlend in2="BackgroundImageFix" result="effect1_dropShadow_45_2"/><feBlend in="SourceGraphic" in2="effect1_dropShadow_45_2" result="shape"/></filter><filter id="h" width="51" height="66" x="278" y="199" color-interpolation-filters="sRGB" filterUnits="userSpaceOnUse"><feFlood flood-opacity="0" result="BackgroundImageFix"/><feColorMatrix in="SourceAlpha" result="hardAlpha" values="0 0 0 0 0 0 0 0 0 0 0 0 0 0 0 0 0 0 127 0"/><feOffset dy="4"/><feGaussianBlur stdDeviation="2"/><feComposite in2="hardAlpha" operator="out"/><feColorMatrix values="0 0 0 0 0 0 0 0 0 0 0 0 0 0 0 0 0 0 0.25 0"/><feBlend in2="BackgroundImageFix" result="effect1_dropShadow_45_2"/><feBlend in="SourceGraphic" in2="effect1_dropShadow_45_2" result="shape"/></filter><filter id="i" width="60.006" height="62" x="278" y="347" color-interpolation-filters="sRGB" filterUnits="userSpaceOnUse"><feFlood flood-opacity="0" result="BackgroundImageFix"/><feColorMatrix in="SourceAlpha" result="hardAlpha" values="0 0 0 0 0 0 0 0 0 0 0 0 0 0 0 0 0 0 127 0"/><feOffset dy="4"/><feGaussianBlur stdDeviation="2"/><feComposite in2="hardAlpha" operator="out"/><feColorMatrix values="0 0 0 0 0 0 0 0 0 0 0 0 0 0 0 0 0 0 0.25 0"/><feBlend in2="BackgroundImageFix" result="effect1_dropShadow_45_2"/><feBlend in="SourceGraphic" in2="effect1_dropShadow_45_2" result="shape"/></filter><filter id="j" width="48" height="58" x="302" y="415" color-interpolation-filters="sRGB" filterUnits="userSpaceOnUse"><feFlood flood-opacity="0" result="BackgroundImageFix"/><feColorMatrix in="SourceAlpha" result="hardAlpha" values="0 0 0 0 0 0 0 0 0 0 0 0 0 0 0 0 0 0 127 0"/><feOffset dy="4"/><feGaussianBlur stdDeviation="2"/><feComposite in2="hardAlpha" operator="out"/><feColorMatrix values="0 0 0 0 0 0 0 0 0 0 0 0 0 0 0 0 0 0 0.25 0"/><feBlend in2="BackgroundImageFix" result="effect1_dropShadow_45_2"/><feBlend in="SourceGraphic" in2="effect1_dropShadow_45_2" result="shape"/></filter><filter id="k" width="53.725" height="61.998" x="218" y="399.002" color-interpolation-filters="sRGB" filterUnits="userSpaceOnUse"><feFlood flood-opacity="0" result="BackgroundImageFix"/><feColorMatrix in="SourceAlpha" result="hardAlpha" values="0 0 0 0 0 0 0 0 0 0 0 0 0 0 0 0 0 0 127 0"/><feOffset dy="4"/><feGaussianBlur stdDeviation="2"/><feComposite in2="hardAlpha" operator="out"/><feColorMatrix values="0 0 0 0 0 0 0 0 0 0 0 0 0 0 0 0 0 0 0.25 0"/><feBlend in2="BackgroundImageFix" result="effect1_dropShadow_45_2"/><feBlend in="SourceGraphic" in2="effect1_dropShadow_45_2" result="shape"/></filter><filter id="l" width="54" height="63" x="344" y="243" color-interpolation-filters="sRGB" filterUnits="userSpaceOnUse"><feFlood flood-opacity="0" result="BackgroundImageFix"/><feColorMatrix in="SourceAlpha" result="hardAlpha" values="0 0 0 0 0 0 0 0 0 0 0 0 0 0 0 0 0 0 127 0"/><feOffset dy="4"/><feGaussianBlur stdDeviation="2"/><feComposite in2="hardAlpha" operator="out"/><feColorMatrix values="0 0 0 0 0 0 0 0 0 0 0 0 0 0 0 0 0 0 0.25 0"/><feBlend in2="BackgroundImageFix" result="effect1_dropShadow_45_2"/><feBlend in="SourceGraphic" in2="effect1_dropShadow_45_2" result="shape"/></filter><filter id="m" width="57" height="57" x="177" y="342" color-interpolation-filters="sRGB" filterUnits="userSpaceOnUse"><feFlood flood-opacity="0" result="BackgroundImageFix"/><feColorMatrix in="SourceAlpha" result="hardAlpha" values="0 0 0 0 0 0 0 0 0 0 0 0 0 0 0 0 0 0 127 0"/><feOffset dy="4"/><feGaussianBlur stdDeviation="2"/><feComposite in2="hardAlpha" operator="out"/><feColorMatrix values="0 0 0 0 0 0 0 0 0 0 0 0 0 0 0 0 0 0 0.25 0"/><feBlend in2="BackgroundImageFix" result="effect1_dropShadow_45_2"/><feBlend in="SourceGraphic" in2="effect1_dropShadow_45_2" result="shape"/></filter><filter id="n" width="51" height="60" x="277" y="129" color-interpolation-filters="sRGB" filterUnits="userSpaceOnUse"><feFlood flood-opacity="0" result="BackgroundImageFix"/><feColorMatrix in="SourceAlpha" result="hardAlpha" values="0 0 0 0 0 0 0 0 0 0 0 0 0 0 0 0 0 0 127 0"/><feOffset dy="4"/><feGaussianBlur stdDeviation="2"/><feComposite in2="hardAlpha" operator="out"/><feColorMatrix values="0 0 0 0 0 0 0 0 0 0 0 0 0 0 0 0 0 0 0.25 0"/><feBlend in2="BackgroundImageFix" result="effect1_dropShadow_45_2"/><feBlend in="SourceGraphic" in2="effect1_dropShadow_45_2" result="shape"/></filter><filter id="o" width="46" height="64" x="234" y="306" color-interpolation-filters="sRGB" filterUnits="userSpaceOnUse"><feFlood flood-opacity="0" result="BackgroundImageFix"/><feColorMatrix in="SourceAlpha" result="hardAlpha" values="0 0 0 0 0 0 0 0 0 0 0 0 0 0 0 0 0 0 127 0"/><feOffset dy="4"/><feGaussianBlur stdDeviation="2"/><feComposite in2="hardAlpha" operator="out"/><feColorMatrix values="0 0 0 0 0 0 0 0 0 0 0 0 0 0 0 0 0 0 0.25 0"/><feBlend in2="BackgroundImageFix" result="effect1_dropShadow_45_2"/><feBlend in="SourceGraphic" in2="effect1_dropShadow_45_2" result="shape"/></filter><filter id="p" width="57" height="71.002" x="353" y="379" color-interpolation-filters="sRGB" filterUnits="userSpaceOnUse"><feFlood flood-opacity="0" result="BackgroundImageFix"/><feColorMatrix in="SourceAlpha" result="hardAlpha" values="0 0 0 0 0 0 0 0 0 0 0 0 0 0 0 0 0 0 127 0"/><feOffset dy="4"/><feGaussianBlur stdDeviation="2"/><feComposite in2="hardAlpha" operator="out"/><feColorMatrix values="0 0 0 0 0 0 0 0 0 0 0 0 0 0 0 0 0 0 0.25 0"/><feBlend in2="BackgroundImageFix" result="effect1_dropShadow_45_2"/><feBlend in="SourceGraphic" in2="effect1_dropShadow_45_2" result="shape"/></filter><filter id="q" width="60.949" height="61" x="75" y="528" color-interpolation-filters="sRGB" filterUnits="userSpaceOnUse"><feFlood flood-opacity="0" result="BackgroundImageFix"/><feColorMatrix in="SourceAlpha" result="hardAlpha" values="0 0 0 0 0 0 0 0 0 0 0 0 0 0 0 0 0 0 127 0"/><feOffset dy="4"/><feGaussianBlur stdDeviation="2"/><feComposite in2="hardAlpha" operator="out"/><feColorMatrix values="0 0 0 0 0 0 0 0 0 0 0 0 0 0 0 0 0 0 0.25 0"/><feBlend in2="BackgroundImageFix" result="effect1_dropShadow_45_2"/><feBlend in="SourceGraphic" in2="effect1_dropShadow_45_2" result="shape"/></filter><filter id="r" width="52" height="61" x="11" y="528" color-interpolation-filters="sRGB" filterUnits="userSpaceOnUse"><feFlood flood-opacity="0" result="BackgroundImageFix"/><feColorMatrix in="SourceAlpha" result="hardAlpha" values="0 0 0 0 0 0 0 0 0 0 0 0 0 0 0 0 0 0 127 0"/><feOffset dy="4"/><feGaussianBlur stdDeviation="2"/><feComposite in2="hardAlpha" operator="out"/><feColorMatrix values="0 0 0 0 0 0 0 0 0 0 0 0 0 0 0 0 0 0 0.25 0"/><feBlend in2="BackgroundImageFix" result="effect1_dropShadow_45_2"/><feBlend in="SourceGraphic" in2="effect1_dropShadow_45_2" result="shape"/></filter><filter id="s" width="55" height="65" x="331" y="170" color-interpolation-filters="sRGB" filterUnits="userSpaceOnUse"><feFlood flood-opacity="0" result="BackgroundImageFix"/><feColorMatrix in="SourceAlpha" result="hardAlpha" values="0 0 0 0 0 0 0 0 0 0 0 0 0 0 0 0 0 0 127 0"/><feOffset dy="4"/><feGaussianBlur stdDeviation="2"/><feComposite in2="hardAlpha" operator="out"/><feColorMatrix values="0 0 0 0 0 0 0 0 0 0 0 0 0 0 0 0 0 0 0.25 0"/><feBlend in2="BackgroundImageFix" result="effect1_dropShadow_45_2"/><feBlend in="SourceGraphic" in2="effect1_dropShadow_45_2" result="shape"/></filter><filter id="t" width="60" height="60" x="102" y="462" color-interpolation-filters="sRGB" filterUnits="userSpaceOnUse"><feFlood flood-opacity="0" result="BackgroundImageFix"/><feColorMatrix in="SourceAlpha" result="hardAlpha" values="0 0 0 0 0 0 0 0 0 0 0 0 0 0 0 0 0 0 127 0"/><feOffset dy="4"/><feGaussianBlur stdDeviation="2"/><feComposite in2="hardAlpha" operator="out"/><feColorMatrix values="0 0 0 0 0 0 0 0 0 0 0 0 0 0 0 0 0 0 0.25 0"/><feBlend in2="BackgroundImageFix" result="effect1_dropShadow_45_2"/><feBlend in="SourceGraphic" in2="effect1_dropShadow_45_2" result="shape"/></filter><filter id="u" width="50" height="61" x="286" y="273" color-interpolation-filters="sRGB" filterUnits="userSpaceOnUse"><feFlood flood-opacity="0" result="BackgroundImageFix"/><feColorMatrix in="SourceAlpha" result="hardAlpha" values="0 0 0 0 0 0 0 0 0 0 0 0 0 0 0 0 0 0 127 0"/><feOffset dy="4"/><feGaussianBlur stdDeviation="2"/><feComposite in2="hardAlpha" operator="out"/><feColorMatrix values="0 0 0 0 0 0 0 0 0 0 0 0 0 0 0 0 0 0 0.25 0"/><feBlend in2="BackgroundImageFix" result="effect1_dropShadow_45_2"/><feBlend in="SourceGraphic" in2="effect1_dropShadow_45_2" result="shape"/></filter><filter id="v" width="59.999" height="56" x="33.001" y="465" color-interpolation-filters="sRGB" filterUnits="userSpaceOnUse"><feFlood flood-opacity="0" result="BackgroundImageFix"/><feColorMatrix in="SourceAlpha" result="hardAlpha" values="0 0 0 0 0 0 0 0 0 0 0 0 0 0 0 0 0 0 127 0"/><feOffset dy="4"/><feGaussianBlur stdDeviation="2"/><feComposite in2="hardAlpha" operator="out"/><feColorMatrix values="0 0 0 0 0 0 0 0 0 0 0 0 0 0 0 0 0 0 0.25 0"/><feBlend in2="BackgroundImageFix" result="effect1_dropShadow_45_2"/><feBlend in="SourceGraphic" in2="effect1_dropShadow_45_2" result="shape"/></filter><filter id="w" width="58.898" height="58.898" x="349" y="455" color-interpolation-filters="sRGB" filterUnits="userSpaceOnUse"><feFlood flood-opacity="0" result="BackgroundImageFix"/><feColorMatrix in="SourceAlpha" result="hardAlpha" values="0 0 0 0 0 0 0 0 0 0 0 0 0 0 0 0 0 0 127 0"/><feOffset dy="4"/><feGaussianBlur stdDeviation="2"/><feComposite in2="hardAlpha" operator="out"/><feColorMatrix values="0 0 0 0 0 0 0 0 0 0 0 0 0 0 0 0 0 0 0.25 0"/><feBlend in2="BackgroundImageFix" result="effect1_dropShadow_45_2"/><feBlend in="SourceGraphic" in2="effect1_dropShadow_45_2" result="shape"/></filter><filter id="x" width="48" height="60" x="223" y="175" color-interpolation-filters="sRGB" filterUnits="userSpaceOnUse"><feFlood flood-opacity="0" result="BackgroundImageFix"/><feColorMatrix in="SourceAlpha" result="hardAlpha" values="0 0 0 0 0 0 0 0 0 0 0 0 0 0 0 0 0 0 127 0"/><feOffset dy="4"/><feGaussianBlur stdDeviation="2"/><feComposite in2="hardAlpha" operator="out"/><feColorMatrix values="0 0 0 0 0 0 0 0 0 0 0 0 0 0 0 0 0 0 0.25 0"/><feBlend in2="BackgroundImageFix" result="effect1_dropShadow_45_2"/><feBlend in="SourceGraphic" in2="effect1_dropShadow_45_2" result="shape"/></filter><filter id="y" width="70.14" height="68.38" x="16.368" y="20.82" color-interpolation-filters="sRGB" filterUnits="userSpaceOnUse"><feFlood flood-opacity="0" result="BackgroundImageFix"/><feColorMatrix in="SourceAlpha" result="hardAlpha" values="0 0 0 0 0 0 0 0 0 0 0 0 0 0 0 0 0 0 127 0"/><feOffset dy="4"/><feGaussianBlur stdDeviation="2"/><feComposite in2="hardAlpha" operator="out"/><feColorMatrix values="0 0 0 0 0 0 0 0 0 0 0 0 0 0 0 0 0 0 0.25 0"/><feBlend in2="BackgroundImageFix" result="effect1_dropShadow_45_2"/><feBlend in="SourceGraphic" in2="effect1_dropShadow_45_2" result="shape"/></filter><clipPath id="a"><path fill="#fff" d="M0 0h420v600H0z"/></clipPath><style>@keyframes float0{0%{transform:translate(0,0)}50%{transform:translate(10px,0)}}@keyframes float1{0%{transform:translate(0,0)}50%{transform:translate(0,-12px)}}@keyframes float2{0%{transform:translate(0,0)}50%{transform:translate(0,5px)}}@keyframes float3{0%{transform:translate(0,0)}50%{transform:translate(0,-10px)}}@keyframes float4{0%{transform:translate(0,0)}50%{transform:translate(12px,4px)}}@keyframes float5{0%{transform:translate(0,0)}50%{transform:translate(4px,-8px)}}@keyframes float6{0%{transform:translate(0,0)}50%{transform:translate(-16px,-8px)}}</style></defs></svg>