<?xml version="1.0" encoding="UTF-8"?>
<svg width="30px" height="30px" version="1.1" viewBox="0 0 16.934 10.789" xml:space="preserve" xmlns="http://www.w3.org/2000/svg">
<style>
   @keyframes colorChange {
      0%,100% { fill: #2973C4; }
      33% { fill: #108800; }
      66% { fill: #e50a10; }
   }
   .heart {
      animation: colorChange 3s infinite;
   }
</style>
<g transform="translate(-115.75 -113.72)"><g transform="matrix(.0074269 0 0 .0074269 105.75 114.15)"><path class="heart" d="m2483.8 1078c-69.856 65.198-138.81 129.82-208.13 194.04-19.521 18.085-33.67 17.996-53.508-0.043-83.543-75.969-167.82-151.17-249.89-228.7-77.378-73.107-152.42-148.69-228.31-223.37-76.198-74.996-128.32-163.53-150.57-268.84-16.124-76.282-17.636-152.16 11.571-225.59 39.218-98.597 116.18-155.21 216.63-177.71 165.61-37.09 304.95 15.649 422.47 133.83 2.088 2.0997 3.86 4.5135 6.1559 7.2252 18.992-16.464 36.762-32.894 55.591-48.004 61.648-49.47 129.67-86.565 208.22-100.68 111.71-20.079 212.07 6.2478 298.74 79.531 65 54.959 98.756 126.71 105.15 211.37 9.2369 122.28-31.923 227.43-111.41 318.28-101.01 115.44-211.84 221.36-322.71 328.67z" fill="#2973C4" stroke-width="2.9872"/><g transform="matrix(95 0 0 95 1346.3 -472.28)" fill="#fff"><g fill="#fff"><path d="m23.881 8.948c-0.773-4.085-4.859-4.593-4.859-4.593h-18.299c-0.604 0-0.679 0.798-0.679 0.798s-0.082 7.324-0.022 11.822c0.164 2.424 2.586 2.672 2.586 2.672s8.267-0.023 11.966-0.049c2.438-0.426 2.683-2.566 2.658-3.734 4.352 0.24 7.422-2.831 6.649-6.916zm-11.062 3.511c-1.246 1.453-4.011 3.976-4.011 3.976s-0.121 0.119-0.31 0.023c-0.076-0.057-0.108-0.09-0.108-0.09-0.443-0.441-3.368-3.049-4.034-3.954-0.709-0.965-1.041-2.7-0.091-3.71 0.951-1.01 3.005-1.086 4.363 0.407 0 0 1.565-1.782 3.468-0.963 1.904 0.82 1.832 3.011 0.723 4.311zm6.173 0.478c-0.928 0.116-1.682 0.028-1.682 0.028v-5.681h1.77s1.971 0.551 1.971 2.638c0 1.913-0.985 2.667-2.059 3.015z" fill="#fff"/></g></g></g></g>
</svg>