<svg fill="#aaa9ad" height="22" width="22" xmlns="http://www.w3.org/2000/svg" viewBox="0 0 511.992 511.992" xml:space="preserve" stroke="red"><path d="M484.746 111.59 348.69 1.024c-2.935-2.389-7.364-.324-7.364 3.43V115.02c0 2.458 2.014 4.446 4.506 4.446h136.055c4.224.001 6.127-5.222 2.859-7.876zM253.381 253.124l-75.298-82.833c-2.62-2.876-7.424-1.024-7.424 2.876v27.366a4.268 4.268 0 0 1-4.267 4.267H34.126a8.536 8.536 0 0 0-8.533 8.533v76.8a8.536 8.536 0 0 0 8.533 8.533h132.267a4.268 4.268 0 0 1 4.267 4.267v35.9c0 3.9 4.804 5.751 7.424 2.867l75.298-82.833a4.277 4.277 0 0 0-.001-5.743z"/><path d="M482.126 136.533h-153.6a4.268 4.268 0 0 1-4.267-4.267v-128a4.268 4.268 0 0 0-4.267-4.267H81.059a4.268 4.268 0 0 0-4.267 4.267v179.2a4.268 4.268 0 0 0 4.267 4.267h68.267a4.268 4.268 0 0 0 4.267-4.267v-53.214c0-3.866 4.71-5.769 7.356-2.944 24.533 26.172 102.903 109.764 118.084 125.961 1.51 1.613 1.493 4.062.008 5.709-15.172 16.828-93.696 99.959-118.161 125.841-2.637 2.79-7.313.939-7.313-2.91-.009-17.143.017-50.176.026-61.918a4.268 4.268 0 0 0-4.267-4.267h-64a8.536 8.536 0 0 0-8.533 8.533v179.2a8.536 8.536 0 0 0 8.533 8.533h392.533a8.536 8.536 0 0 0 8.533-8.533V140.8a4.268 4.268 0 0 0-4.266-4.267z"/></svg>