<svg height="24" width="24" xmlns="http://www.w3.org/2000/svg" viewBox="0 0 512 512" xml:space="preserve"><path d="M255.996.005C114.615.005 0 114.62 0 256s114.615 255.996 255.996 255.996C397.39 511.995 512 397.38 512 256S397.39.005 255.996.005zm52.864 377.119-87.064 45.899 1.878-35.924c-23.849-5.799-45.64-18.064-63.186-35.609-25.489-25.44-39.525-59.346-39.525-95.49 0-18.633 3.746-36.714 11.132-53.741l1.435-3.299 31.959 13.879-1.426 3.298c-5.466 12.633-8.238 26.047-8.238 39.863 0 26.766 10.422 51.926 29.344 70.84 11.374 11.378 25.261 19.835 40.381 24.625l1.487-28.072 90.876 48.916-9.053 4.815zm71.032-67.391-1.43 3.298-31.963-13.879 1.434-3.298c5.461-12.589 8.233-25.994 8.233-39.855 0-26.766-10.422-51.925-29.344-70.848-11.427-11.387-25.314-19.844-40.38-24.625l-1.488 28.072-90.95-48.925 9.194-4.816 17.146-9.08 69.852-36.801-1.877 35.871c23.87 5.842 45.662 18.133 63.184 35.652 25.533 25.538 39.569 59.452 39.526 95.499 0 18.67-3.746 36.751-11.137 53.735z" style="fill:#aaa9ad"/></svg>