<svg fill="#aaa9ad" height="22px" width="22px" version="1.1" id="Layer_1" xmlns="http://www.w3.org/2000/svg" xmlns:xlink="http://www.w3.org/1999/xlink" viewBox="0 0 472.615 472.615" xml:space="preserve"><g id="SVGRepo_bgCarrier" stroke-width="0"></g><g id="SVGRepo_tracerCarrier" stroke-linecap="round" stroke-linejoin="round"></g><g id="SVGRepo_iconCarrier"> <g> <g> <path d="M391.548,0H363.93v132.681H39.334V0H0v472.615h472.615V76.698L391.548,0z M117.238,436.681H49.18v-19.692h68.058V436.681z M236.308,369.872c-48.94,0-88.615-39.675-88.615-88.615c0-48.941,39.675-88.615,88.615-88.615 c48.941,0,88.615,39.674,88.615,88.615C324.923,330.197,285.249,369.872,236.308,369.872z"></path> </g> </g> <g> <g> <polygon points="305.844,0 305.844,76.414 286.152,76.414 286.152,0 59.027,0 59.027,112.989 344.238,112.989 344.238,0 "></polygon> </g> </g> </g></svg>